<svg xmlns="http://www.w3.org/2000/svg" viewBox="0 0 34 34">
  <g fill="#FFF" fill-rule="evenodd">
    <path d="M34 7.36666667c0-.05666667 0-.11333334-.0566667-.17V7.14c-.0566666-.05666667-.0566666-.11333333-.1133333-.17l-6.8-6.8c-.0566667-.05666667-.1133333-.05666667-.17-.11333333h-.0566667C26.7466667.05666667 26.69 0 26.6333333 0H.56666667C.22666667 0 0 .22666667 0 .56666667V34h1.13333333V1.13333333H26.0666667v6.23333334c0 .34.2266666.56666666.5666666.56666666h6.2333334V34H34V7.36666667zM27.2 6.8V1.92666667L32.0733333 6.8H27.2z"/>
    <path d="M3 3h6v1H3zM3 6h8v1H3zM3 11h24v1H3zM3 14h27v1H3zM3 23h19v1H3zM3 26h27v1H3zM3 29h27v1H3z"/>
  </g>
</svg>
