<svg xmlns="http://www.w3.org/2000/svg" viewBox="0 0 10 10">
  <path d="M4.9654 0C2.2276 0 0 2.2274 0 4.9652 0 6.0878.3656 7.147 1.057 8.0278c.9486 1.209 2.3732 1.903 3.9084 1.903 1.5352 0 2.9598-.694 3.9086-1.9034.6912-.8808 1.0566-1.94 1.0566-3.0624C9.9306 2.2274 7.7032 0 4.9654 0zm1.905 4.674c-.0216-.482-.0946-.936-.2008-1.3568.6132-.1488 1.1402-.362 1.5716-.5824.3828.5604.6222 1.224.6746 1.9392H6.8704zm-1.939 4.2558c-.014-.0002-.0278-.0012-.0416-.0016-.2566-.3312-.6612-.9414-.9564-1.7872.3222-.0508.666-.0822 1.0322-.0822.3228 0 .6288.0242.9184.0644-.3008.825-.7022 1.458-.9526 1.8066zm.034-2.4706c-.43 0-.8302.0408-1.2044.1042-.0976-.392-.1666-.8224-.188-1.2896h2.699c-.0242.4504-.0996.876-.205 1.27-.3452-.053-.7126-.0846-1.1016-.0846zM1.015 4.674c.0524-.7152.2918-1.3788.6746-1.9392.4068.2078.9008.4096 1.472.557-.0998.4212-.1668.8828-.1864 1.3824L1.015 4.674zm2.5576 0c.0198-.4534.0846-.8726.1774-1.2562.378.0642.7834.1022 1.2152.1022.3942 0 .7652-.0324 1.1144-.0866.1.3856.1706.801.1928 1.2404l-2.6998.0002zm1.3602-3.6724c.2552.3546.6668 1.0042.969 1.8516-.2954.0418-.607.0668-.9366.0668-.3706 0-.7194-.0308-1.0466-.0828.2964-.8676.7104-1.4946.9712-1.8334.0144-.0002.0284-.002.043-.0022zm2.9208 1.2556c-.3792.1846-.8316.3592-1.352.483-.2336-.6854-.5364-1.2528-.797-1.6686.8404.1594 1.586.5852 2.149 1.1856zM4.0846 1.102c-.2568.4002-.5422.9416-.7618 1.612-.4764-.1218-.8932-.2852-1.246-.4568.5316-.5664 1.225-.9768 2.0078-1.1552zm-3.072 4.172h1.9628c.0214.5124.093.985.198 1.4146-.5814.1492-1.0718.3492-1.4578.5446-.4082-.5826-.649-1.2506-.703-1.9592zm1.0912 2.435c.337-.1616.754-.3212 1.2344-.4436.2182.6508.498 1.1766.7494 1.5678-.7548-.1696-1.442-.5574-1.9838-1.1242zm3.5994 1.1524c.2552-.4064.5514-.959.7832-1.6258.5176.122.9664.2946 1.3402.4738-.575.6012-1.314 1.0004-2.1234 1.152zM8.2158 7.232c-.4244-.2144-.9464-.4252-1.5576-.5722.1112-.4288.1876-.8926.2116-1.3858H8.918c-.0538.708-.2944 1.3758-.7022 1.958z" fill="#5C4B51" fill-rule="evenodd"/>
</svg>
