<?xml version="1.0" encoding="UTF-8" standalone="no"?>
<svg width="25px" height="26px" viewBox="0 0 25 26" version="1.1" xmlns="http://www.w3.org/2000/svg" xmlns:xlink="http://www.w3.org/1999/xlink">
    <!-- Generator: Sketch 39.1 (31720) - http://www.bohemiancoding.com/sketch -->
    <title>instagram logo</title>
    <desc>Created with Sketch.</desc>
    <defs></defs>
    <g id="Symbols" stroke="none" stroke-width="1" fill="none" fill-rule="evenodd">
        <g id="instagram-logo" fill="#5C4B51">
            <g transform="translate(0.000000, 0.711345)" id="Capa_1">
                <g>
                    <g id="Group">
                        <path d="M12.2026346,14.6461108 C13.5489796,14.6461108 14.6466023,13.5504543 14.6466023,12.2031261 C14.6466023,11.6712731 14.472595,11.1802185 14.1845489,10.7791168 C13.7406827,10.1637009 13.0190928,9.76014147 12.2041092,9.76014147 C11.3886341,9.76014147 10.6675358,10.1632094 10.2226865,10.7786252 C9.93365729,11.1797269 9.76112457,11.6707816 9.76063302,12.2026346 C9.75915838,13.5499627 10.855798,14.6461108 12.2026346,14.6461108 L12.2026346,14.6461108 Z" id="Shape"></path>
                        <polygon id="Shape" points="17.5373856 9.21452519 17.5373856 7.16674369 17.5373856 6.86198504 17.2311523 6.86296813 15.1843539 6.86935823 15.1922186 9.22238992"></polygon>
                        <path d="M12.2031261,0 C5.4743501,0 0,5.4743501 0,12.2031261 C0,18.9314106 5.4743501,24.4062522 12.2031261,24.4062522 C18.9314106,24.4062522 24.4062522,18.9314106 24.4062522,12.2031261 C24.4062522,5.4743501 18.9323937,0 12.2031261,0 L12.2031261,0 Z M19.143267,10.7791168 L19.143267,16.4613909 C19.143267,17.9414365 17.9399619,19.1442501 16.4608994,19.1442501 L7.94535288,19.1442501 C6.4657988,19.1442501 5.26298523,17.9414365 5.26298523,16.4613909 L5.26298523,10.7791168 L5.26298523,7.94584443 C5.26298523,6.46629035 6.4657988,5.26347678 7.94535288,5.26347678 L16.4604078,5.26347678 C17.9399619,5.26347678 19.143267,6.46629035 19.143267,7.94584443 L19.143267,10.7791168 L19.143267,10.7791168 Z" id="Shape"></path>
                        <path d="M15.9993375,12.2031261 C15.9993375,14.2956383 14.2966214,15.9993375 12.2031261,15.9993375 C10.1096308,15.9993375 8.40740631,14.2956383 8.40740631,12.2031261 C8.40740631,11.6997828 8.50768174,11.2185591 8.68660456,10.7791168 L6.6147373,10.7791168 L6.6147373,16.4613909 C6.6147373,17.1957609 7.21098285,17.7905318 7.94486133,17.7905318 L16.4599163,17.7905318 C17.1928117,17.7905318 17.7900403,17.1957609 17.7900403,16.4613909 L17.7900403,10.7791168 L15.7171899,10.7791168 C15.8975874,11.2185591 15.9993375,11.6997828 15.9993375,12.2031261 L15.9993375,12.2031261 Z" id="Shape"></path>
                    </g>
                </g>
            </g>
        </g>
    </g>
</svg>