<?xml version="1.0" encoding="UTF-8"?>
<svg width="12px" height="11px" viewBox="0 0 12 11" version="1.1" xmlns="http://www.w3.org/2000/svg" xmlns:xlink="http://www.w3.org/1999/xlink">
    <!-- Generator: Sketch 40.2 (33826) - http://www.bohemiancoding.com/sketch -->
    <title>Shape</title>
    <desc>Created with Sketch.</desc>
    <defs></defs>
    <g id="Symbols" stroke="none" stroke-width="1" fill="none" fill-rule="evenodd">
        <g id="Calendar" fill="#5C4B51">
            <path d="M10.4132231,1.5 L9.4214876,1.5 L9.4214876,0.5 L8.42975207,0.5 L8.42975207,3 L7.43801653,3 L7.43801653,1.5 L4.46280992,1.5 L4.46280992,0.5 L3.47107438,0.5 L3.47107438,3 L2.47933884,3 L2.47933884,1.5 L1.48760331,1.5 C0.940661157,1.5 0.495867769,1.949 0.495867769,2.5 L0.495867769,10 C0.495867769,10.5515 0.940661157,11 1.48760331,11 L10.4132231,11 C10.9601653,11 11.4049587,10.5515 11.4049587,10 L11.4049587,2.5 C11.4049587,1.949 10.9601653,1.5 10.4132231,1.5 L10.4132231,1.5 Z M3.96694215,9.5 L1.98347107,9.5 L1.98347107,7.5 L3.96694215,7.5 L3.96694215,9.5 L3.96694215,9.5 Z M3.96694215,6.5 L1.98347107,6.5 L1.98347107,4.5 L3.96694215,4.5 L3.96694215,6.5 L3.96694215,6.5 Z M6.94214876,9.5 L4.95867769,9.5 L4.95867769,7.5 L6.94214876,7.5 L6.94214876,9.5 L6.94214876,9.5 Z M6.94214876,6.5 L4.95867769,6.5 L4.95867769,4.5 L6.94214876,4.5 L6.94214876,6.5 L6.94214876,6.5 Z M9.91735537,6.5 L7.9338843,6.5 L7.9338843,4.5 L9.91735537,4.5 L9.91735537,6.5 L9.91735537,6.5 Z" id="Shape"></path>
        </g>
    </g>
</svg>