<?xml version="1.0" encoding="iso-8859-1"?>
<!-- Generator: Adobe Illustrator 18.1.1, SVG Export Plug-In . SVG Version: 6.00 Build 0)  -->
<svg version="1.1" id="Calque_1" xmlns="http://www.w3.org/2000/svg" xmlns:xlink="http://www.w3.org/1999/xlink" x="0px" y="0px"
	 viewBox="0 0 841.89 226.77" style="fill:#5C4B51;fill:#5C4B51;enable-background:new 0 0 841.89 226.77;" xml:space="preserve">
<g id="XiDI79.tif">
	<g>
		<path style="fill:#5C4B51;fill:#5C4B51;fill:#5C4B51;" d="M454.629,118.7c-2.99-0.554-5.649-1.048-8.441-1.565c0.881,1.229,1.839,2.001,3.311,2.195
			c2.095,0.276,4.166,0.735,6.249,1.112c1.333,0.241,1.835,1.479,2.696,2.403c-2.612-0.478-5.225-0.955-8.03-1.468
			c0.907,1.099,1.653,1.946,3.057,2.126c2.237,0.286,4.445,0.793,6.663,1.223c1.291,0.25,1.724,1.518,2.589,2.365
			c-2.12-0.392-4.239-0.783-6.359-1.175c-1.023-0.189-2.055-0.34-3.067-0.577c-0.846-0.198-0.882,0.146-0.746,0.832
			c0.559,2.812,1.082,5.631,1.611,8.449c0.051,0.273,0.045,0.556,0.078,1.001c-1.206-1.146-2.411-1.999-2.547-3.784
			c-0.136-1.776-0.733-3.514-0.923-5.291c-0.162-1.514-1.011-2.433-2.209-3.392c0.524,2.815,1.021,5.482,1.522,8.173
			c-1.834-1.029-2.583-2.635-2.796-4.627c-0.152-1.423-0.575-2.817-0.717-4.24c-0.153-1.526-0.941-2.569-2.227-3.498
			c0.504,2.734,0.991,5.371,1.534,8.312c-1.311-1.239-2.483-2.133-2.68-3.887c-0.232-2.063-0.732-4.095-1.076-6.148
			c-0.089-0.528-0.3-0.93-0.671-1.3c-4.942-4.923-9.884-9.847-14.803-14.792c-0.441-0.443-0.659-0.423-1.087,0.007
			c-4.946,4.972-9.912,9.924-14.88,14.874c-0.32,0.319-0.488,0.657-0.569,1.11c-0.378,2.117-0.955,4.211-1.165,6.343
			c-0.176,1.792-1.419,2.594-2.634,3.807c0.531-2.862,1.02-5.494,1.548-8.338c-1.037,0.935-1.967,1.599-2.122,2.991
			c-0.198,1.777-0.772,3.516-0.923,5.293c-0.16,1.883-1.226,3.031-2.715,4.192c0.516-2.805,1.005-5.466,1.518-8.251
			c-1.148,0.962-2.046,1.844-2.193,3.384c-0.169,1.778-0.785,3.515-0.926,5.293c-0.145,1.821-1.391,2.682-2.671,3.897
			c0.609-3.216,1.176-6.205,1.742-9.195c0.267-1.41,0.266-1.413-1.12-1.15c-2.889,0.55-5.778,1.104-8.668,1.652
			c-0.093,0.018-0.195-0.016-0.395-0.036c1.101-1.276,2.087-2.417,3.929-2.581c2.062-0.183,4.095-0.697,6.139-1.075
			c1.095-0.203,1.499-1.228,2.196-1.968c-2.602,0.479-5.204,0.959-7.806,1.438c0.857-1.115,1.525-2.307,3.163-2.507
			c2.274-0.278,4.516-0.812,6.772-1.237c1.061-0.2,1.437-1.211,2.132-1.936c-2.644,0.49-5.289,0.981-7.942,1.473
			c0.753-1.433,1.897-2.274,3.366-2.533c2.153-0.381,4.301-0.789,6.453-1.176c0.508-0.091,0.917-0.301,1.293-0.679
			c4.872-4.894,9.748-9.784,14.659-14.638c0.576-0.569,0.554-0.829-0.004-1.383c-7.629-7.578-15.239-15.176-22.824-22.797
			c-0.632-0.635-0.814-0.62-1.164,0.208c-0.724,1.713-1.563,3.376-2.455,5.273c-2.719-6.325-5.366-12.479-8.117-18.877
			c6.374,2.735,12.555,5.387,18.905,8.111c-2.149,1.002-4.116,1.919-6.228,2.903c1.655,1.635,3.265,3.213,4.86,4.805
			c6.212,6.199,12.431,12.391,18.611,18.621c0.641,0.646,0.934,0.617,1.56-0.012c7.532-7.574,15.099-15.113,22.655-22.663
			c0.226-0.226,0.438-0.465,0.732-0.779c-2.029-0.948-3.991-1.864-6.153-2.874c6.319-2.712,12.495-5.363,18.9-8.113
			c-2.743,6.382-5.39,12.541-8.116,18.884c-0.989-2.111-1.908-4.07-2.961-6.317c-1.179,1.253-2.219,2.418-3.32,3.522
			c-6.656,6.67-13.314,13.338-20.01,19.967c-0.715,0.707-0.628,1.046,0.036,1.701c4.787,4.724,9.54,9.481,14.275,14.257
			c0.54,0.545,1.119,0.826,1.846,0.952c2.119,0.367,4.223,0.844,6.353,1.126C452.723,116.327,453.327,117.658,454.629,118.7z"/>
	</g>
</g>
<rect x="0.178" y="95.613" style="fill:#5C4B51;fill:#5C4B51;stroke:#5C4B51;stroke-width:0.5;stroke-miterlimit:10;" width="388.909" height="1.59"/>
<rect x="0.178" y="101.974" style="fill:#5C4B51;fill:#5C4B51;stroke:#5C4B51;stroke-width:0.5;stroke-miterlimit:10;" width="388.909" height="1.59"/>
<rect x="422.147" y="82.742" transform="matrix(0.7282 0.6854 -0.6854 0.7282 175.2235 -268.3331)" style="fill:#5C4B51;fill:#5C4B51;fill:#FFFFFF;stroke:#5C4B51;stroke-width:2;stroke-miterlimit:10;" width="7.551" height="8.023"/>
<rect x="422.147" y="106.824" transform="matrix(0.7282 0.6854 -0.6854 0.7282 191.7285 -261.7876)" style="fill:#5C4B51;fill:#5C4B51;fill:#FFFFFF;stroke:#5C4B51;stroke-width:2;stroke-miterlimit:10;" width="7.551" height="8.023"/>
<rect x="410.561" y="95.215" transform="matrix(0.7282 0.6854 -0.6854 0.7282 180.6232 -257.0015)" style="fill:#5C4B51;fill:#5C4B51;fill:#FFFFFF;stroke:#5C4B51;stroke-width:2;stroke-miterlimit:10;" width="7.551" height="8.023"/>
<rect x="434.605" y="94.808" transform="matrix(0.7282 0.6854 -0.6854 0.7282 186.8792 -273.5916)" style="fill:#5C4B51;fill:#5C4B51;fill:#FFFFFF;stroke:#5C4B51;stroke-width:2;stroke-miterlimit:10;" width="7.551" height="8.023"/>
<path style="fill:#5C4B51;fill:#5C4B51;stroke:#5C4B51;stroke-width:0.5;stroke-miterlimit:10;" d="M-5.573,113.385"/>
<rect x="462.973" y="95.883" style="fill:#5C4B51;fill:#5C4B51;stroke:#5C4B51;stroke-width:0.5;stroke-miterlimit:10;" width="378.917" height="1.59"/>
<rect x="462.973" y="102.243" style="fill:#5C4B51;fill:#5C4B51;stroke:#5C4B51;stroke-width:0.5;stroke-miterlimit:10;" width="378.917" height="1.59"/>
</svg>
