<?xml version="1.0" encoding="UTF-8"?>
<svg width="10px" height="10px" viewBox="0 0 10 10" version="1.1" xmlns="http://www.w3.org/2000/svg" xmlns:xlink="http://www.w3.org/1999/xlink">
    <!-- Generator: Sketch 40.2 (33826) - http://www.bohemiancoding.com/sketch -->
    <title>Shape</title>
    <desc>Created with Sketch.</desc>
    <defs></defs>
    <g id="Symbols" stroke="none" stroke-width="1" fill="none" fill-rule="evenodd">
        <g id="Globe" fill="#5C4B51">
            <path d="M4.9654,0 C2.2276,0 0,2.2274 0,4.9652 C0,6.0878 0.3656,7.147 1.057,8.0278 C2.0056,9.2368 3.4302,9.9308 4.9654,9.9308 C6.5006,9.9308 7.9252,9.2368 8.874,8.0274 C9.5652,7.1466 9.9306,6.0874 9.9306,4.965 C9.9306,2.2274 7.7032,0 4.9654,0 L4.9654,0 Z M6.8704,4.674 C6.8488,4.192 6.7758,3.738 6.6696,3.3172 C7.2828,3.1684 7.8098,2.9552 8.2412,2.7348 C8.624,3.2952 8.8634,3.9588 8.9158,4.674 L6.8704,4.674 L6.8704,4.674 L6.8704,4.674 Z M4.9314,8.9298 C4.9174,8.9296 4.9036,8.9286 4.8898,8.9282 C4.6332,8.597 4.2286,7.9868 3.9334,7.141 C4.2556,7.0902 4.5994,7.0588 4.9656,7.0588 C5.2884,7.0588 5.5944,7.083 5.884,7.1232 C5.5832,7.9482 5.1818,8.5812 4.9314,8.9298 L4.9314,8.9298 Z M4.9654,6.4592 C4.5354,6.4592 4.1352,6.5 3.761,6.5634 C3.6634,6.1714 3.5944,5.741 3.573,5.2738 L6.272,5.2738 C6.2478,5.7242 6.1724,6.1498 6.067,6.5438 C5.7218,6.4908 5.3544,6.4592 4.9654,6.4592 L4.9654,6.4592 Z M1.015,4.674 C1.0674,3.9588 1.3068,3.2952 1.6896,2.7348 C2.0964,2.9426 2.5904,3.1444 3.1616,3.2918 C3.0618,3.713 2.9948,4.1746 2.9752,4.6742 L1.015,4.674 L1.015,4.674 L1.015,4.674 Z M3.5726,4.674 C3.5924,4.2206 3.6572,3.8014 3.75,3.4178 C4.128,3.482 4.5334,3.52 4.9652,3.52 C5.3594,3.52 5.7304,3.4876 6.0796,3.4334 C6.1796,3.819 6.2502,4.2344 6.2724,4.6738 L3.5726,4.674 L3.5726,4.674 L3.5726,4.674 Z M4.9328,1.0016 C5.188,1.3562 5.5996,2.0058 5.9018,2.8532 C5.6064,2.895 5.2948,2.92 4.9652,2.92 C4.5946,2.92 4.2458,2.8892 3.9186,2.8372 C4.215,1.9696 4.629,1.3426 4.8898,1.0038 C4.9042,1.0036 4.9182,1.0018 4.9328,1.0016 L4.9328,1.0016 Z M7.8536,2.2572 C7.4744,2.4418 7.022,2.6164 6.5016,2.7402 C6.268,2.0548 5.9652,1.4874 5.7046,1.0716 C6.545,1.231 7.2906,1.6568 7.8536,2.2572 L7.8536,2.2572 Z M4.0846,1.102 C3.8278,1.5022 3.5424,2.0436 3.3228,2.714 C2.8464,2.5922 2.4296,2.4288 2.0768,2.2572 C2.6084,1.6908 3.3018,1.2804 4.0846,1.102 L4.0846,1.102 Z M1.0126,5.274 L2.9754,5.274 C2.9968,5.7864 3.0684,6.259 3.1734,6.6886 C2.592,6.8378 2.1016,7.0378 1.7156,7.2332 C1.3074,6.6506 1.0666,5.9826 1.0126,5.274 L1.0126,5.274 Z M2.1038,7.709 C2.4408,7.5474 2.8578,7.3878 3.3382,7.2654 C3.5564,7.9162 3.8362,8.442 4.0876,8.8332 C3.3328,8.6636 2.6456,8.2758 2.1038,7.709 L2.1038,7.709 Z M5.7032,8.8614 C5.9584,8.455 6.2546,7.9024 6.4864,7.2356 C7.004,7.3576 7.4528,7.5302 7.8266,7.7094 C7.2516,8.3106 6.5126,8.7098 5.7032,8.8614 L5.7032,8.8614 Z M8.2158,7.232 C7.7914,7.0176 7.2694,6.8068 6.6582,6.6598 C6.7694,6.231 6.8458,5.7672 6.8698,5.274 L8.918,5.274 C8.8642,5.982 8.6236,6.6498 8.2158,7.232 L8.2158,7.232 Z" id="Shape"></path>
        </g>
    </g>
</svg>