<?xml version="1.0" encoding="UTF-8" standalone="no"?>
<svg width="25px" height="26px" viewBox="0 0 25 26" version="1.1" xmlns="http://www.w3.org/2000/svg" xmlns:xlink="http://www.w3.org/1999/xlink">
    <!-- Generator: Sketch 39.1 (31720) - http://www.bohemiancoding.com/sketch -->
    <title>twitter logo button</title>
    <desc>Created with Sketch.</desc>
    <defs></defs>
    <g id="Symbols" stroke="none" stroke-width="1" fill="none" fill-rule="evenodd">
        <g id="twitter" fill="#4A9690">
            <g id="twitter-logo-button" transform="translate(0.000000, 0.711345)">
                <g id="Capa_1">
                    <path d="M12.2031261,0 C5.4743501,0 0,5.4743501 0,12.2031261 C0,18.9314106 5.4743501,24.4062522 12.2031261,24.4062522 C18.9314106,24.4062522 24.4062522,18.9314106 24.4062522,12.2031261 C24.4062522,5.4743501 18.9323937,0 12.2031261,0 L12.2031261,0 Z M17.6470004,9.41016058 C17.6524074,9.53108094 17.6553566,9.6529844 17.6553566,9.77488786 C17.6553566,13.4865533 14.8309321,17.7649714 9.66330687,17.7649714 C8.07708726,17.7649714 6.60048246,17.3014434 5.35785365,16.5041554 C5.5775748,16.5302074 5.80122833,16.5434791 6.02783113,16.5434791 C7.34419187,16.5434791 8.55487018,16.0942059 9.51633456,15.3411571 C8.28746904,15.318546 7.249815,14.5065116 6.89246091,13.3902102 C7.06351899,13.4226523 7.23998407,13.4408395 7.42038153,13.4408395 C7.67647711,13.4408395 7.92519949,13.4074143 8.16065012,13.3430218 C6.87574834,13.0854516 5.90789385,11.9504714 5.90789385,10.5888884 C5.90789385,10.5770913 5.90789385,10.5648026 5.9083854,10.5534971 C6.28687598,10.7633873 6.71992819,10.8902062 7.18001544,10.904461 C6.42696665,10.4016093 5.93099653,9.54140341 5.93099653,8.56715883 C5.93099653,8.05201841 6.06912101,7.56932003 6.31096174,7.15445503 C7.69564741,8.85422182 9.76604003,9.97199789 12.0999014,10.089969 C12.0517299,9.88401112 12.0276441,9.67018852 12.0276441,9.44948427 C12.0276441,7.89865599 13.2850193,6.64078925 14.8358476,6.64078925 C15.6439496,6.64078925 16.3729126,6.98192232 16.8860868,7.5275386 C17.5265715,7.40170278 18.1262579,7.16870987 18.6703996,6.84576402 C18.4590347,7.5019782 18.0151685,8.05201841 17.4336693,8.40003312 C18.0023883,8.33219974 18.5450553,8.18178661 19.046924,7.95813308 C18.6723657,8.52046194 18.1960575,9.01544897 17.6470004,9.41016058 L17.6470004,9.41016058 Z" id="Shape"></path>
                </g>
            </g>
        </g>
    </g>
</svg>