<?xml version="1.0" encoding="UTF-8" standalone="no"?>
<svg width="25px" height="26px" viewBox="0 0 25 26" version="1.1" xmlns="http://www.w3.org/2000/svg" xmlns:xlink="http://www.w3.org/1999/xlink">
    <!-- Generator: Sketch 39.1 (31720) - http://www.bohemiancoding.com/sketch -->
    <title>youtube symbol</title>
    <desc>Created with Sketch.</desc>
    <defs></defs>
    <g id="Symbols" stroke="none" stroke-width="1" fill="none" fill-rule="evenodd">
        <g id="youtube-symbol" fill="#5C4B51">
            <g transform="translate(0.259163, 0.711345)" id="Capa_1">
                <g>
                    <g id="Group">
                        <path d="M10.0237808,14.943757 C11.8630664,13.9900069 13.6863016,13.0450344 15.5263396,12.0907827 C13.6807842,11.1277534 11.8580507,10.1772636 10.0237808,9.22000241 C10.0237808,11.1345247 10.0237808,13.0294855 10.0237808,14.943757 L10.0237808,14.943757 Z" id="Shape"></path>
                        <path d="M12.2573065,0 C5.48801308,0 0,5.48776229 0,12.2573065 C0,19.0268508 5.48801308,24.5146131 12.2573065,24.5146131 C19.0266,24.5146131 24.5146131,19.0268508 24.5146131,12.2573065 C24.5146131,5.48776229 19.0266,0 12.2573065,0 L12.2573065,0 Z M20.6088271,16.3486764 C20.3966597,17.2690715 19.6437915,17.947957 18.7376912,18.049025 C16.5916908,18.2890299 14.4198591,18.2902839 12.256805,18.2890299 C10.0937509,18.2902839 7.92141759,18.2890299 5.77491556,18.049025 C4.86881533,17.947957 4.11644869,17.2690715 3.90478287,16.3486764 C3.60308385,15.0375521 3.60308385,13.6068015 3.60308385,12.2573065 C3.60308385,10.9078116 3.6065949,9.47655944 3.90829392,8.16593675 C4.11995973,7.24554156 4.87232638,6.56640527 5.7784266,6.46508656 C7.92492863,6.22533239 10.0972619,6.22407844 12.260316,6.22533239 C14.4228685,6.22407844 16.5952018,6.22533239 18.7409515,6.46508656 C19.6475533,6.56640527 20.4004215,7.24529077 20.6120873,8.16593675 C20.9137863,9.47681023 20.9112785,10.9078116 20.9112785,12.2573065 C20.9112785,13.6068015 20.9105261,15.0378029 20.6088271,16.3486764 L20.6088271,16.3486764 Z" id="Shape"></path>
                    </g>
                </g>
            </g>
        </g>
    </g>
</svg>