<?xml version="1.0" encoding="iso-8859-1"?>
<!-- Generator: Adobe Illustrator 19.0.0, SVG Export Plug-In . SVG Version: 6.00 Build 0)  -->
<svg version="1.1" id="Capa_1" xmlns="http://www.w3.org/2000/svg" xmlns:xlink="http://www.w3.org/1999/xlink" x="0px" y="0px"
	 viewBox="0 0 512 512" style="enable-background:new 0 0 512 512;" xml:space="preserve">
<g>
	<g>
		<g>
			<path d="M494.793,0H213.289c-9.488,0-17.207,7.719-17.207,17.207V83.48h-80.834c-9.488,0-17.207,7.719-17.207,17.207v66.273H17.5
				c-9.649,0-17.5,7.851-17.5,17.5V494.5c0,9.649,7.851,17.5,17.5,17.5h280.918c9.649,0,17.5-7.851,17.5-17.5v-65.994
				c0.089,0.003,0.176,0.013,0.266,0.013h80.568c9.488,0,17.207-7.719,17.207-17.207v-66.273h80.834
				c9.488,0,17.207-7.719,17.207-17.207V17.207C512,7.719,504.281,0,494.793,0z M300.918,494.5c0,1.378-1.122,2.5-2.5,2.5H17.5
				c-1.378,0-2.5-1.122-2.5-2.5V184.461c0-1.378,1.122-2.5,2.5-2.5h280.918c1.378,0,2.5,1.122,2.5,2.5V494.5z M398.959,411.313
				c0,1.217-0.99,2.207-2.207,2.207h-80.568c-0.09,0-0.177,0.01-0.266,0.013v-62.67h56.566c6.812,0,12.354-5.542,12.354-12.354
				V211.024c0-4.142-3.358-7.5-7.5-7.5c-4.142,0-7.5,3.358-7.5,7.5v124.839h-53.92V184.461c0-9.649-7.851-17.5-17.5-17.5H142.162
				v-39.359h227.676v55.272c0,4.142,3.358,7.5,7.5,7.5c4.142,0,7.5-3.358,7.5-7.5v-57.918c0-6.812-5.542-12.354-12.354-12.354
				H139.516c-6.812,0-12.354,5.542-12.354,12.354v42.006h-14.121v-66.273c0-1.217,0.99-2.207,2.207-2.207h281.504
				c1.217,0,2.207,0.99,2.207,2.207V411.313z M497,327.832c0,1.217-0.99,2.207-2.207,2.207h-80.834v-62.656h56.566
				c6.812,0,12.354-5.542,12.354-12.354V106.35c0-4.142-3.358-7.5-7.5-7.5c-4.142,0-7.5,3.358-7.5,7.5v146.033h-53.92V100.688
				c0-9.488-7.719-17.207-17.207-17.207H240.203v-39.36h227.676v33.755c0,4.142,3.358,7.5,7.5,7.5c4.142,0,7.5-3.358,7.5-7.5V41.475
				c0-6.812-5.542-12.354-12.354-12.354H237.557c-6.812,0-12.354,5.542-12.354,12.354V83.48h-14.121V17.207
				c0-1.217,0.99-2.207,2.207-2.207h281.504c1.217,0,2.207,0.99,2.207,2.207V327.832z"/>
			<path d="M68.81,320.842c9.505,13.674,21.444,25.148,35.487,34.104l7.341,4.683c1.958,1.248,4.202,1.872,6.446,1.872
				c2.245,0,4.489-0.625,6.448-1.874l7.34-4.681c9.701-6.187,18.436-13.648,26.07-22.204c7.614,8.545,16.351,15.984,26.105,22.204
				l7.341,4.683c1.958,1.248,4.202,1.872,6.446,1.872c2.245,0,4.49-0.625,6.449-1.873l7.34-4.681
				c14.042-8.955,25.982-20.43,35.487-34.104c0.028-0.04,0.055-0.08,0.082-0.121c8.835-13.252,7.073-31.045-4.189-42.307
				c-12.416-12.416-32.478-12.638-45.167-0.668c-11.01-10.386-27.567-11.586-39.867-3.615c-12.545-8.17-28.946-6.711-39.883,3.614
				c-12.689-11.968-32.751-11.747-45.167,0.669c-11.262,11.261-13.024,29.054-4.189,42.307
				C68.754,320.762,68.782,320.802,68.81,320.842z M163.273,289.02c6.794-6.792,17.849-6.792,24.642,0.001l1.438,1.439
				c2.265,2.266,5.277,3.513,8.48,3.513c3.204,0,6.215-1.248,8.479-3.513l1.439-1.439c6.794-6.793,17.849-6.793,24.643,0
				c6.208,6.208,7.192,16.005,2.353,23.323c-8.359,12.008-18.853,22.086-31.191,29.955l-5.722,3.649l-5.723-3.65
				c-12.337-7.868-22.832-17.946-31.191-29.955C156.081,305.026,157.066,295.227,163.273,289.02z M83.523,289.021
				c6.794-6.793,17.849-6.794,24.643,0l1.438,1.439c2.265,2.265,5.277,3.513,8.48,3.513s6.215-1.248,8.479-3.513l1.439-1.439
				c5.194-5.194,12.864-6.497,19.326-3.634c-6.212,10.821-6.025,24.574,1.148,35.335c0.007,0.01,0.014,0.02,0.021,0.03
				c-7.119,8.376-15.404,15.624-24.692,21.547l-5.722,3.649l-5.722-3.649c-12.338-7.868-22.832-17.945-31.191-29.953
				C76.331,305.028,77.315,295.229,83.523,289.021z"/>
			<path d="M274.297,196.082H41.621c-6.893,0-12.5,5.607-12.5,12.5v213.262c0,6.893,5.607,12.5,12.5,12.5h232.676
				c6.893,0,12.5-5.607,12.5-12.5V208.582C286.797,201.689,281.189,196.082,274.297,196.082z M271.797,419.344H44.121V211.082
				h227.676V419.344z"/>
		</g>
	</g>
</g>
<g>
</g>
<g>
</g>
<g>
</g>
<g>
</g>
<g>
</g>
<g>
</g>
<g>
</g>
<g>
</g>
<g>
</g>
<g>
</g>
<g>
</g>
<g>
</g>
<g>
</g>
<g>
</g>
<g>
</g>
</svg>
