<svg xmlns="http://www.w3.org/2000/svg" xmlns:xlink="http://www.w3.org/1999/xlink" zoomAndPan="magnify" viewBox="0 0 810 809.999993" preserveAspectRatio="xMidYMid meet" version="1.2"><defs><clipPath id="135f59fc98"><path d="M 109 128.570312 L 684 128.570312 L 684 684 L 109 684 Z M 109 128.570312 "/></clipPath></defs><g id="78dfa785c6"><path style=" stroke:none;fill-rule:nonzero;fill:#f6f5f1;fill-opacity:1;" d="M 395.273438 0.289062 C 361.328125 1.433594 311.253906 12.738281 272.238281 28.597656 C 208.199219 54.628906 146.554688 104.246094 105.652344 162.675781 C 87.519531 188.582031 63.09375 229.140625 54.085938 248.292969 C 30.917969 297.574219 13.003906 367.75 6.15625 436.078125 C 0.015625 497.324219 16.710938 578.988281 47.179688 636.773438 C 84.082031 706.761719 115.972656 735.835938 186.523438 763.816406 C 233.523438 782.453125 317.394531 801.359375 373.832031 806.03125 C 402.40625 808.398438 409.375 808.398438 440.503906 806.023438 C 473.875 803.476562 500.722656 798.347656 535.246094 787.917969 C 601.378906 767.9375 643.316406 744.394531 688.386719 701.945312 C 716.144531 675.800781 743.855469 637.234375 763.132812 597.914062 C 777.675781 568.25 796.65625 512.546875 803.976562 478.035156 C 808.996094 454.378906 809.605469 446.878906 809.710938 407.132812 C 809.816406 368.265625 809.210938 359.765625 804.875 339.40625 C 794.382812 290.121094 775.511719 242.625 753.160156 209.242188 C 733.789062 180.308594 700.210938 136.640625 685.070312 120.683594 C 649.125 82.808594 586.128906 42.300781 539.449219 27.046875 C 514.050781 18.75 431.347656 1.910156 408.753906 0.4375 C 404.644531 0.167969 400.121094 0.125 395.273438 0.289062 Z M 395.273438 0.289062 "/><g clip-rule="nonzero" clip-path="url(#135f59fc98)"><path style=" stroke:none;fill-rule:nonzero;fill:#5c4a51;fill-opacity:1;" d="M 580.488281 334.582031 C 586.59375 345.15625 591.910156 354.378906 595.53125 361.148438 C 596.351562 362.730469 597.644531 364.078125 599.339844 364.972656 C 603.824219 367.355469 609.398438 365.660156 611.785156 361.191406 C 615.375 354.46875 620.679688 345.285156 626.757812 334.722656 C 649.804688 294.734375 683.886719 235.578125 683.886719 208.792969 C 683.886719 186.679688 674.90625 166.621094 660.394531 152.105469 L 660.351562 152.0625 C 645.839844 137.550781 625.792969 128.570312 603.664062 128.570312 C 581.539062 128.570312 561.492188 137.550781 546.980469 152.0625 L 546.9375 152.105469 C 532.421875 166.621094 523.441406 186.664062 523.441406 208.792969 C 523.457031 235.664062 557.441406 294.589844 580.488281 334.582031 Z M 559.984375 165.113281 C 571.164062 153.960938 586.59375 147.050781 603.664062 147.050781 C 620.734375 147.050781 636.167969 153.960938 647.347656 165.113281 C 658.496094 176.277344 665.410156 191.722656 665.410156 208.792969 C 665.410156 230.792969 632.835938 287.335938 610.808594 325.554688 L 603.664062 337.984375 L 596.4375 325.414062 C 574.394531 287.191406 541.921875 230.863281 541.921875 208.792969 C 541.921875 191.722656 548.832031 176.277344 559.984375 165.113281 Z M 629.183594 231.925781 C 635.707031 225.402344 639.761719 216.378906 639.761719 206.421875 C 639.761719 196.464844 635.722656 187.441406 629.183594 180.917969 C 622.660156 174.394531 613.636719 170.339844 603.664062 170.339844 C 593.707031 170.339844 584.683594 174.378906 578.144531 180.917969 C 571.621094 187.441406 567.585938 196.464844 567.585938 206.421875 C 567.585938 216.378906 571.621094 225.402344 578.144531 231.925781 C 584.667969 238.449219 593.695312 242.503906 603.664062 242.503906 C 613.636719 242.488281 622.660156 238.449219 629.183594 231.925781 Z M 586.0625 206.40625 C 586.0625 201.550781 588.03125 197.140625 591.222656 193.964844 C 594.398438 190.789062 598.808594 188.804688 603.679688 188.804688 C 608.535156 188.804688 612.949219 190.773438 616.136719 193.964844 C 619.3125 197.140625 621.296875 201.550781 621.296875 206.40625 C 621.296875 211.265625 619.328125 215.675781 616.136719 218.851562 C 612.960938 222.027344 608.550781 224.011719 603.679688 224.011719 C 598.824219 224.011719 594.410156 222.042969 591.222656 218.851562 C 588.03125 215.675781 586.0625 211.265625 586.0625 206.40625 Z M 377.769531 230.589844 C 391.535156 230.589844 404.066406 225.101562 413.261719 216.179688 L 413.835938 215.648438 C 423.0625 206.421875 428.78125 193.664062 428.78125 179.582031 C 428.78125 165.558594 423.074219 152.824219 413.835938 143.542969 L 413.792969 143.5 C 404.554688 134.273438 391.808594 128.570312 377.769531 128.570312 C 363.6875 128.570312 350.929688 134.289062 341.71875 143.527344 C 332.476562 152.78125 326.757812 165.527344 326.757812 179.582031 C 326.757812 193.664062 332.476562 206.421875 341.703125 215.648438 C 350.929688 224.871094 363.6875 230.589844 377.769531 230.589844 Z M 354.734375 156.574219 L 354.777344 156.574219 C 360.671875 150.699219 368.804688 147.050781 377.785156 147.050781 C 386.792969 147.050781 394.925781 150.683594 400.789062 156.546875 C 400.789062 156.546875 400.832031 156.589844 400.832031 156.589844 C 406.695312 162.453125 410.316406 170.585938 410.316406 179.59375 C 410.316406 188.574219 406.664062 196.722656 400.789062 202.601562 L 400.371094 203.046875 C 394.550781 208.664062 386.578125 212.128906 377.785156 212.128906 C 368.804688 212.128906 360.65625 208.476562 354.777344 202.601562 C 348.886719 196.722656 345.253906 188.574219 345.253906 179.59375 C 345.238281 170.570312 348.875 162.4375 354.734375 156.574219 Z M 377.769531 128.570312 Z M 668.054688 366.320312 C 606.296875 429.789062 565.628906 460.796875 524.9375 479.894531 L 473.25 369.554688 C 479.820312 368.691406 485.78125 365.863281 490.367188 361.507812 L 490.96875 360.949219 C 496.515625 355.402344 499.964844 347.726562 499.964844 339.308594 C 499.964844 330.871094 496.515625 323.214844 490.96875 317.667969 C 485.453125 312.148438 477.777344 308.714844 469.328125 308.703125 L 411.710938 308.644531 L 360.855469 247.332031 C 358.671875 244.859375 353.703125 240.808594 348.542969 237.703125 C 344.535156 235.289062 340.109375 233.222656 336.128906 232.402344 C 327.175781 229.398438 317.921875 229.253906 309.371094 231.453125 L 309.730469 230.476562 C 311.699219 225.144531 311.3125 219.484375 309.070312 214.65625 C 306.84375 209.828125 302.792969 205.832031 297.445312 203.863281 L 241.550781 183.203125 C 241.164062 183.03125 240.746094 182.871094 240.316406 182.757812 C 235.183594 181.0625 229.8125 181.507812 225.199219 183.648438 C 220.585938 185.773438 216.75 189.554688 214.695312 194.539062 C 214.507812 194.941406 214.351562 195.359375 214.222656 195.789062 L 161.617188 338.085938 C 159.648438 343.417969 160.035156 349.09375 162.261719 353.90625 C 164.476562 358.71875 168.542969 362.714844 173.902344 364.683594 L 230.34375 385.546875 C 230.875 385.734375 231.40625 385.691406 231.9375 385.792969 C 227.726562 398.292969 228.203125 409.472656 232.5 419.097656 C 237.109375 429.460938 245.933594 437.648438 257.601562 443.613281 L 258.148438 443.886719 L 258.148438 513.519531 L 199.105469 581.785156 C 179.5625 591.671875 162.335938 603.195312 147.460938 617.550781 C 132.488281 632.019531 119.972656 649.261719 109.988281 670.515625 C 107.832031 675.113281 109.828125 680.601562 114.425781 682.742188 C 119.027344 684.898438 124.515625 682.902344 126.65625 678.300781 C 135.621094 659.234375 146.816406 643.757812 160.207031 630.828125 C 163.914062 627.25 167.851562 623.886719 171.902344 620.652344 C 171.585938 622.839844 171.457031 625.035156 171.617188 627.21875 C 172.164062 634.765625 175.496094 642.136719 181.460938 647.597656 C 181.875 648.027344 182.320312 648.414062 182.796875 648.746094 C 189.058594 653.847656 196.804688 656.074219 204.320312 655.527344 C 212.136719 654.96875 219.753906 651.417969 225.269531 645.039062 L 293.609375 566.039062 L 314.574219 559.84375 L 341.054688 552.128906 C 348.558594 549.972656 354.921875 548.160156 361.203125 546.4375 C 364.117188 545.632812 367.066406 544.84375 370.167969 544.007812 L 380.757812 600.105469 C 381.21875 602.519531 382.007812 604.777344 382.984375 606.917969 C 381.503906 606.011719 379.765625 605.378906 377.566406 605.496094 C 376.921875 605.566406 376.417969 605.636719 375.785156 605.796875 C 369.765625 607.40625 363.6875 609.128906 357.753906 610.996094 C 347.191406 614.332031 350.28125 630.179688 361.632812 628.988281 C 362.179688 628.902344 362.652344 628.816406 363.183594 628.65625 C 368.917969 626.847656 374.839844 625.179688 380.644531 623.613281 C 385.6875 622.277344 387.742188 617.851562 387.28125 613.699219 C 389.148438 615.96875 391.21875 618.054688 393.617188 619.691406 C 399.914062 623.988281 407.800781 625.957031 415.832031 624.632812 C 416.320312 624.578125 416.824219 624.492188 417.296875 624.347656 C 425.246094 622.636719 431.839844 617.921875 436.121094 611.671875 C 436.4375 611.214844 436.640625 610.695312 436.914062 610.222656 L 450.808594 607.21875 C 461.410156 604.992188 460.03125 588.957031 448.710938 588.957031 C 448.0625 588.984375 447.546875 589.027344 446.914062 589.171875 L 441.078125 590.4375 C 441.007812 589.875 441.035156 589.328125 440.9375 588.769531 L 429.671875 529.078125 C 462.835938 521.019531 489.964844 514.238281 515.929688 503.976562 L 536.203125 547.242188 C 538.359375 551.839844 543.832031 553.835938 548.429688 551.683594 C 553.027344 549.527344 555.027344 544.050781 552.871094 539.453125 L 532.855469 496.722656 C 575.144531 476.964844 617.273438 444.90625 681.273438 379.125 C 684.820312 375.472656 684.734375 369.640625 681.101562 366.105469 C 677.421875 362.601562 671.589844 362.671875 668.054688 366.320312 Z M 180.253906 347.382812 C 179.691406 347.183594 179.246094 346.738281 179.003906 346.203125 C 178.757812 345.6875 178.730469 345.054688 178.945312 344.453125 L 231.75 201.59375 C 231.964844 201.046875 232.382812 200.617188 232.886719 200.386719 L 232.914062 200.386719 C 233.433594 200.144531 234.0625 200.101562 234.652344 200.328125 L 291.09375 221.195312 C 291.671875 221.410156 292.117188 221.839844 292.34375 222.34375 L 292.34375 222.371094 C 292.589844 222.902344 292.632812 223.535156 292.417969 224.125 L 283.078125 249.386719 C 280.40625 253.007812 278.046875 256.914062 276.453125 261.355469 L 237.859375 368.980469 C 237.457031 368.75 237.140625 368.417969 236.695312 368.261719 Z M 211.359375 633.027344 C 209.191406 635.539062 206.160156 636.933594 203.042969 637.164062 C 199.910156 637.394531 196.691406 636.445312 194.175781 634.277344 L 194.089844 634.203125 C 191.632812 632.035156 190.253906 629.03125 190.023438 625.957031 C 189.792969 622.824219 190.742188 619.605469 192.910156 617.089844 L 274.328125 522.972656 C 275.835938 521.234375 276.566406 519.078125 276.597656 516.953125 L 276.597656 451.71875 L 300.867188 461.875 C 300.765625 482.925781 300.207031 504.796875 300.9375 525.503906 C 300.878906 526.753906 300.621094 528.015625 300.164062 529.238281 C 299.671875 530.53125 298.957031 531.765625 298.007812 532.859375 Z M 356.375 528.71875 C 350.394531 530.359375 343.945312 532.199219 336.011719 534.484375 L 315.0625 540.5625 C 315.996094 538.996094 316.789062 537.371094 317.40625 535.71875 C 318.597656 532.558594 319.230469 529.238281 319.34375 525.890625 C 320.25 508.042969 319.761719 488.414062 319.515625 469.679688 L 359.261719 486.332031 L 366.734375 525.933594 C 363.371094 526.808594 359.964844 527.730469 356.375 528.71875 Z M 413.101562 606.429688 L 412.972656 606.457031 C 409.742188 607.03125 406.535156 606.242188 403.992188 604.503906 C 401.40625 602.734375 399.496094 600.003906 398.878906 596.730469 L 376.476562 478.011719 C 375.886719 474.835938 373.71875 472.351562 370.957031 471.203125 L 313.855469 447.292969 C 313.796875 447.261719 313.742188 447.246094 313.683594 447.21875 L 271.066406 429.371094 C 271.007812 429.34375 270.949219 429.328125 270.890625 429.300781 L 265.921875 427.21875 C 257.972656 423.152344 252.125 417.921875 249.324219 411.613281 C 246.796875 405.9375 246.652344 399.011719 249.582031 390.820312 L 293.78125 267.546875 C 296.46875 260.078125 301.988281 254.359375 308.726562 251.183594 C 315.464844 248.007812 323.398438 247.375 330.867188 250.046875 C 331.371094 250.234375 331.875 250.363281 332.390625 250.449219 L 332.390625 250.476562 C 334.058594 250.765625 336.53125 252 339.03125 253.511719 C 342.535156 255.621094 345.582031 257.949219 346.875 259.316406 L 400.257812 323.730469 C 402.226562 326.101562 405.140625 327.25 408.003906 327.050781 L 469.34375 327.121094 C 472.648438 327.121094 475.695312 328.515625 477.921875 330.742188 C 480.121094 332.941406 481.5 335.988281 481.5 339.320312 C 481.5 342.65625 480.132812 345.703125 477.921875 347.898438 L 477.578125 348.273438 C 475.40625 350.257812 472.519531 351.476562 469.34375 351.476562 L 469.34375 351.519531 L 397.195312 351.519531 C 395.515625 351.492188 393.820312 351.117188 392.269531 350.402344 C 390.789062 349.726562 389.421875 348.734375 388.289062 347.453125 L 337.550781 290.324219 C 334.1875 286.515625 328.367188 286.171875 324.5625 289.53125 C 320.753906 292.894531 320.40625 298.714844 323.769531 302.523438 L 337.378906 317.839844 L 306.570312 403.765625 C 304.960938 408.25 307.058594 413.179688 311.269531 415.175781 L 388.214844 452.003906 C 391.332031 453.742188 393.949219 455.410156 395.6875 457.191406 C 396.980469 458.511719 397.886719 460.066406 398.261719 462.078125 L 422.832031 592.230469 C 423.449219 595.523438 422.660156 598.769531 420.90625 601.355469 C 419.109375 603.898438 416.378906 605.8125 413.101562 606.429688 Z M 426.238281 510.988281 L 416.351562 458.644531 C 415.230469 452.679688 412.613281 448.125 408.863281 444.300781 C 405.574219 440.925781 401.636719 438.355469 397.195312 435.898438 L 326.660156 402.128906 L 351.273438 333.488281 L 374.492188 359.625 C 377.394531 362.886719 380.859375 365.402344 384.59375 367.113281 C 388.472656 368.878906 392.671875 369.828125 396.878906 369.886719 L 453.0625 369.886719 L 507.980469 487.121094 C 483.351562 496.835938 457.546875 503.375 426.238281 510.988281 Z M 329.359375 640.871094 C 323.570312 643.328125 318.308594 646.074219 312.675781 648.773438 C 301.3125 653.199219 294.660156 637.4375 304.703125 632.121094 C 310.40625 629.160156 316.6875 626 322.648438 623.65625 C 333.886719 619.933594 340.121094 636.085938 329.359375 640.871094 Z M 660.136719 527.542969 C 655.292969 531.851562 650.164062 535.847656 644.917969 539.625 C 644.1875 540.128906 643.625 540.417969 642.820312 540.746094 C 631.988281 544.355469 625.851562 530.316406 634.199219 524.582031 C 638.925781 521.21875 643.570312 517.570312 647.90625 513.703125 C 657.003906 505.816406 669.203125 519.121094 660.136719 527.542969 Z M 505.09375 595.105469 C 499.058594 596.558594 493.023438 597.921875 486.972656 599.332031 C 486.371094 599.460938 485.867188 599.515625 485.234375 599.558594 C 473.554688 599.558594 472.5625 583.496094 482.894531 581.324219 C 488.855469 579.945312 494.804688 578.59375 500.753906 577.160156 C 512.839844 574.601562 516.832031 592.015625 505.09375 595.105469 Z M 565.574219 570.851562 C 565.804688 575.117188 563.214844 578.839844 559.179688 580.191406 C 553.203125 582.058594 547.253906 583.898438 541.230469 585.652344 C 539.910156 585.996094 539.121094 586.039062 537.742188 585.96875 C 527.378906 584.816406 526.703125 570.375 536.117188 567.90625 C 541.949219 566.195312 547.710938 564.425781 553.515625 562.601562 C 559.222656 560.691406 565.242188 564.886719 565.574219 570.851562 Z M 284.699219 667.898438 C 280.503906 671.648438 276.582031 675.746094 273.078125 680.15625 C 272.746094 680.558594 272.414062 680.917969 272.027344 681.277344 C 263.203125 688.835938 251.78125 677.195312 258.605469 668.675781 C 262.757812 663.445312 267.371094 658.601562 272.359375 654.148438 C 272.960938 653.585938 273.59375 653.199219 274.328125 652.796875 C 284.285156 648.113281 292.503906 660.65625 284.699219 667.898438 Z M 611.882812 559.210938 C 606.195312 562.027344 600.433594 564.644531 594.585938 567.128906 C 583.089844 571.597656 576.335938 555.03125 587.414062 550.101562 C 592.917969 547.746094 598.335938 545.300781 603.707031 542.644531 C 606.023438 541.421875 608.710938 541.453125 611.125 542.3125 C 618.636719 545.402344 619.113281 555.390625 611.882812 559.210938 Z M 611.882812 559.210938 "/></g></g></svg>
