<svg xmlns="http://www.w3.org/2000/svg" viewBox="0 0 512 512">
  <path d="M328 464a8 8 0 000-16h-64a8 8 0 000 16zM24 464h64a8 8 0 000-16H24a8 8 0 000 16zM224 480a8 8 0 000 16h32a8 8 0 000-16zM56 488a8 8 0 008 8h112a8 8 0 000-16H64a8 8 0 00-8 8z"/>
  <path d="M472.833 202.217C459.655 195.628 442.313 192 424 192a133.936 133.936 0 00-16.323.99l45.98-45.981a8 8 0 000-11.313c-8.3-8.3-21.595-9.96-37.442-4.678-13.976 4.659-28.8 14.356-41.754 27.305q-3.387 3.387-6.461 6.936V104a8 8 0 00-8-8c-11.736 0-22.313 8.228-29.783 23.167C323.628 132.345 320 149.687 320 168a128.6 128.6 0 002.718 26.721A129.142 129.142 0 00296 192c-18.313 0-35.655 3.628-48.833 10.217C232.228 209.687 224 220.264 224 232a8 8 0 008 8h55.535c-17.06 24.332-20.651 48.845-7.839 61.657a8 8 0 0011.313 0l40.764-40.764A23.96 23.96 0 00368 265.869c.36.322.731.631 1.109.932 9.38 23.343 14.707 49.954 15.547 77.49-19.536 1.469-38.352 8.771-54.812 21.367-1 .766-1.988 1.556-2.967 2.357-44.939.3-85.4 18.523-107.032 47.985H24v16h336c32.051 0 56 12.671 56 24s-23.949 24-56 24a8 8 0 000 16c18.313 0 35.655-3.628 48.833-10.217C423.772 478.313 432 467.736 432 456c0-8.968-4.819-17.255-13.752-24H488a8 8 0 007.408-11.02c-9.206-22.585-23.471-41.715-41.252-55.322A107.989 107.989 0 00430.811 352H432c0-40.181-8.012-78.611-23.25-112H488a8 8 0 008-8c0-11.736-8.228-22.313-23.167-29.783zM352 115.737v72.989a81.176 81.176 0 00-5.71 14.26c-.485-.257-.957-.519-1.457-.769-1.313-.657-2.678-1.275-4.071-1.872A106.939 106.939 0 01336 168c0-24.545 7.431-44.339 16-52.263zm-22.954 125.256l-41.079 41.078c-.46-10.125 6.01-26.1 19.885-42.071h21.524c-.116.328-.228.658-.33.993zM243.737 224c7.924-8.569 27.718-16 52.263-16s44.339 7.431 52.263 16zM352 256a8 8 0 118-8 8.009 8.009 0 01-8 8zm8.5-43.368c1.886-12.752 11.441-29.166 25.27-42.995 17.357-17.358 36.594-26.108 48.27-25.642l-57.621 57.625c-.417.2-.842.392-1.252.6a53.186 53.186 0 00-14.667 10.412zM384 256a8 8 0 118-8 8.009 8.009 0 01-8 8zm-93.259 160h-49.752c16.533-16.258 41.331-27.394 68.795-30.852A137.934 137.934 0 00290.741 416zm153.692-37.636A112.675 112.675 0 01475.493 416H308.507a112.675 112.675 0 0131.06-37.636C355.267 366.35 373.4 360 392 360s36.733 6.35 52.433 18.364zm-28.5-31.386a98.117 98.117 0 00-15.263-2.586 249.179 249.179 0 00-12.7-72.726 23.97 23.97 0 0013.442-7.168 259.817 259.817 0 0114.518 82.48zM371.737 224c7.924-8.569 27.718-16 52.263-16s44.339 7.431 52.263 16z"/>
  <path d="M216 448h-80a8 8 0 000 16h80a8 8 0 000-16zM144 64a40 40 0 1040 40 40.045 40.045 0 00-40-40zm0 64a24 24 0 1124-24 24.028 24.028 0 01-24 24zM152 40V24a8 8 0 00-16 0v16a8 8 0 0016 0zM232 104a8 8 0 00-8-8h-16a8 8 0 000 16h16a8 8 0 008-8zM152 184v-16a8 8 0 00-16 0v16a8 8 0 0016 0zM56 104a8 8 0 008 8h16a8 8 0 000-16H64a8 8 0 00-8 8zM104.4 53.088L93.088 41.775a8 8 0 00-11.313 11.313L93.088 64.4A8 8 0 10104.4 53.088zM194.912 64.4l11.313-11.314a8 8 0 00-11.313-11.313L183.6 53.088A8 8 0 00194.912 64.4zM194.912 166.225a8 8 0 0011.313-11.313L194.912 143.6a8 8 0 10-11.312 11.312zM81.775 154.912a8 8 0 1011.313 11.313l11.312-11.313A8 8 0 1093.088 143.6zM120 272a8.009 8.009 0 018 8 8 8 0 0016 0 8 8 0 0116 0 8 8 0 0016 0 23.988 23.988 0 00-40-17.874A23.988 23.988 0 0096 280a8 8 0 0016 0 8.009 8.009 0 018-8zM32 328a8 8 0 0016 0 8 8 0 0116 0 8 8 0 0016 0 8 8 0 0116 0 8 8 0 0016 0 23.988 23.988 0 00-40-17.874A23.988 23.988 0 0032 328z"/>
</svg>
