<svg xmlns="http://www.w3.org/2000/svg" version="1.0" viewBox="0 0 512 512"><path d="M304.5 64.4c-1.6.7-3.8 2.2-4.7 3.2-1.4 1.6-57.4 105.7-90.3 167.6-4.9 9.3-8.9 16.7-9 16.5-.1-.1-8.9-16.6-19.5-36.7s-20.1-38-21.2-39.8c-3.7-6-11.4-8-17.3-4.4-2.5 1.6-15.7 25.5-72.4 131.3C32 373.3.6 432.9.3 434.6c-.7 4.2 2.2 10.1 6.1 12.2 2.9 1.6 19.1 1.7 249.6 1.7s246.7-.1 249.6-1.7c3.9-2.1 6.8-8 6.1-12.2-.6-3.9-60.1-116.6-62.4-118.4-4.2-3.1-11.3.6-11.3 5.9 0 2 9.7 21.4 28.5 56.9 15.7 29.6 28.5 54.1 28.5 54.5 0 .3-44.8.4-99.6.3l-99.5-.3-43.5-82.7L209 268l6.2-11.5c3.4-6.4 6.5-11.4 6.8-11.3.4.2 4.1 4.6 8.1 9.8 8.6 10.9 12.2 13.1 18.8 11.2 3.1-1 6.8-4.6 20.7-20.2 9.3-10.4 17.2-19 17.5-19 .4 0 15 17 32.7 37.8 17.6 20.8 33.2 38.3 34.6 39 4.1 1.8 9 1.4 12.4-1.1 1.7-1.2 10.6-10.9 19.8-21.5 9.1-10.5 16.9-19.2 17.4-19.2.4 0 3.8 5.9 7.6 13.1 5.9 11.2 7.4 13.4 10.2 14.6 3 1.2 3.7 1.2 5.8-.2 5.2-3.4 5.2-5.7.1-15.8C417.9 254.2 323 74.4 319.9 69.4c-2-3.3-7.3-6.4-10.6-6.4-1 .1-3.1.7-4.8 1.4zm49 101c42.6 80.7 42.7 80.8 40.7 83-1 1.1-9 10.4-17.7 20.6-8.7 10.2-16.1 18.6-16.4 18.8-.4.1-14.8-16.4-32-36.8-17.2-20.3-32.4-37.9-33.8-39-3-2.4-9.2-2.6-13.1-.6-1.5.8-10.1 9.8-19.2 20-9 10.2-16.7 18.2-17 17.8-1.9-2.2-13.7-17.9-14.3-18.8-.5-.9 71.6-137.4 77.7-147.3.7-1.1 1-1.1 1.6 0 .4.8 20 37.8 43.5 82.3zM195.1 273.8c23.1 43.5 41.9 79.4 41.9 79.6 0 .5-10.2 10.3-16.8 16.1l-4.3 3.8-10.8-10.6c-11.8-11.7-14.3-12.8-18.8-8.5-4.7 4.4-3.4 7 9.5 20 12.6 12.9 15.3 14.8 20.4 14.8 4.6-.1 6.5-1.3 17.9-11.9 5.5-5.2 10.4-9 10.8-8.5 1 1 32.7 61.1 33.7 63.6.6 1.7-6 1.8-130.5 1.8-72.1 0-131.1-.2-131.1-.5s12.7-24.2 28.1-53c24.9-46.4 28.3-52.4 29.8-51.3.9.7 5.7 4.7 10.6 8.9 13 11 17.2 12.7 23.3 9.5 1.5-.8 8.5-8 15.6-16l12.9-14.5 8.6 8.1c10.3 9.6 11.9 10.5 16 8.8 3.8-1.5 5.3-5.6 3.6-9.6-1.3-2.9-16.8-18.7-21.5-21.8-3.5-2.3-10.1-2.1-13.3.5-2 1.5-25.9 27.6-27.3 29.7-.1.2-5.2-3.8-11.4-8.9-7.8-6.6-10.9-9.7-10.5-10.8.7-2 64.1-120.6 66.3-124l1.5-2.5 2 4c1.1 2.1 20.8 39.6 43.8 83.2z"/></svg>
