<svg xmlns="http://www.w3.org/2000/svg" xmlns:xlink="http://www.w3.org/1999/xlink" zoomAndPan="magnify" viewBox="0 0 810 809.999993" preserveAspectRatio="xMidYMid meet" version="1.2"><defs><clipPath id="be224510cb"><path d="M 27.066406 218 L 784 218 L 784 576.617188 L 27.066406 576.617188 Z M 27.066406 218 "/></clipPath></defs><g id="e46a76df6e"><path style=" stroke:none;fill-rule:nonzero;fill:#f6f5f1;fill-opacity:1;" d="M 396.109375 -0.324219 C 362.089844 0.820312 311.910156 12.152344 272.816406 28.042969 C 208.636719 54.132812 146.863281 103.851562 105.875 162.40625 C 87.707031 188.367188 63.226562 229.011719 54.203125 248.207031 C 30.984375 297.589844 13.03125 367.914062 6.167969 436.386719 C 0.015625 497.761719 16.746094 579.597656 47.28125 637.507812 C 84.261719 707.640625 116.21875 736.777344 186.914062 764.816406 C 234.015625 783.496094 318.0625 802.4375 374.621094 807.121094 C 403.257812 809.492188 410.242188 809.492188 441.433594 807.113281 C 474.878906 804.5625 501.777344 799.421875 536.375 788.96875 C 602.652344 768.945312 644.675781 745.351562 689.839844 702.816406 C 717.65625 676.617188 745.429688 637.96875 764.746094 598.566406 C 779.320312 568.835938 798.339844 513.015625 805.675781 478.433594 C 810.707031 454.726562 811.316406 447.210938 811.421875 407.378906 C 811.527344 368.429688 810.921875 359.910156 806.578125 339.507812 C 796.0625 290.121094 777.148438 242.523438 754.75 209.070312 C 735.339844 180.074219 701.691406 136.316406 686.519531 120.328125 C 650.496094 82.371094 587.367188 41.777344 540.589844 26.492188 C 515.136719 18.175781 432.257812 1.300781 409.617188 -0.175781 C 405.496094 -0.445312 400.96875 -0.488281 396.109375 -0.324219 Z M 396.109375 -0.324219 "/><g clip-rule="nonzero" clip-path="url(#be224510cb)"><path style=" stroke:none;fill-rule:nonzero;fill:#5c4a51;fill-opacity:1;" d="M 513.539062 297.300781 C 509.761719 294.089844 505.847656 291.054688 501.792969 288.195312 C 497.742188 285.339844 493.566406 282.671875 489.273438 280.195312 C 484.976562 277.71875 480.578125 275.4375 476.078125 273.359375 C 471.574219 271.28125 466.988281 269.414062 462.316406 267.75 C 457.644531 266.089844 452.90625 264.640625 448.105469 263.410156 C 443.300781 262.175781 438.453125 261.164062 433.558594 260.371094 C 428.664062 259.582031 423.742188 259.011719 418.796875 258.667969 C 413.847656 258.320312 408.898438 258.203125 403.941406 258.304688 L 394.902344 258.222656 L 393.21875 349.429688 L 550.230469 349.375 L 544.460938 336.527344 C 540.652344 329.035156 536.144531 321.988281 530.941406 315.386719 C 525.734375 308.785156 519.9375 302.753906 513.539062 297.300781 Z M 411.804688 331.160156 L 412.796875 276.824219 C 420.816406 277.046875 428.761719 277.941406 436.628906 279.503906 C 444.496094 281.066406 452.175781 283.28125 459.671875 286.140625 C 467.164062 289 474.367188 292.46875 481.277344 296.542969 C 488.183594 300.621094 494.703125 305.246094 500.832031 310.421875 C 507.96875 316.601562 514.320312 323.5 519.886719 331.121094 Z M 367.800781 258.304688 C 362.84375 258.203125 357.890625 258.324219 352.945312 258.667969 C 347.996094 259.015625 343.074219 259.582031 338.179688 260.375 C 333.285156 261.167969 328.433594 262.179688 323.632812 263.414062 C 318.828125 264.644531 314.089844 266.09375 309.417969 267.757812 C 304.746094 269.417969 300.15625 271.289062 295.65625 273.371094 C 291.152344 275.449219 286.753906 277.726562 282.457031 280.207031 C 278.164062 282.683594 273.988281 285.351562 269.933594 288.207031 C 265.882812 291.066406 261.964844 294.101562 258.1875 297.3125 C 251.796875 302.761719 246 308.785156 240.796875 315.375 C 235.589844 321.96875 231.082031 329.003906 227.265625 336.488281 L 221.511719 349.332031 L 378.507812 349.375 L 376.839844 258.167969 Z M 251.894531 331.121094 C 255.03125 326.992188 258.386719 323.054688 261.964844 319.304688 C 265.546875 315.558594 269.324219 312.023438 273.304688 308.703125 C 277.285156 305.382812 281.4375 302.296875 285.769531 299.449219 C 290.097656 296.597656 294.574219 294.003906 299.195312 291.660156 C 303.816406 289.316406 308.558594 287.242188 313.417969 285.433594 C 318.273438 283.628906 323.21875 282.101562 328.25 280.851562 C 333.277344 279.605469 338.363281 278.648438 343.503906 277.976562 C 348.640625 277.304688 353.800781 276.925781 358.984375 276.835938 L 359.976562 331.175781 Z M 774.9375 417.84375 C 770.167969 402.09375 764.605469 386.628906 758.253906 371.453125 L 756.679688 367.796875 L 752.925781 366.414062 C 752.003906 366.085938 661.554688 333.867188 612.183594 319.886719 C 543.34375 252.484375 467.660156 218.289062 387.203125 218.289062 C 372.632812 218.546875 358.140625 219.734375 343.726562 221.855469 C 329.308594 223.976562 315.089844 227.007812 301.0625 230.953125 C 287.039062 234.902344 273.320312 239.730469 259.914062 245.4375 C 246.511719 251.148438 233.523438 257.691406 220.960938 265.066406 C 188.964844 283.003906 159.503906 304.429688 132.582031 329.339844 L 57.421875 337.496094 L 26.402344 489.675781 L 91.019531 502.261719 L 116.5625 502.261719 C 116.578125 503.472656 116.625 504.6875 116.699219 505.898438 C 116.773438 507.109375 116.878906 508.316406 117.015625 509.523438 C 117.148438 510.730469 117.3125 511.933594 117.503906 513.128906 C 117.699219 514.328125 117.917969 515.519531 118.171875 516.707031 C 118.421875 517.894531 118.699219 519.078125 119.007812 520.25 C 119.316406 521.425781 119.652344 522.589844 120.019531 523.746094 C 120.382812 524.902344 120.777344 526.050781 121.199219 527.191406 C 121.621094 528.328125 122.066406 529.457031 122.542969 530.570312 C 123.019531 531.6875 123.523438 532.792969 124.050781 533.886719 C 124.582031 534.976562 125.136719 536.054688 125.71875 537.121094 C 126.300781 538.183594 126.910156 539.234375 127.542969 540.269531 C 128.175781 541.304688 128.832031 542.324219 129.515625 543.328125 C 130.199219 544.332031 130.90625 545.316406 131.636719 546.285156 C 132.367188 547.253906 133.121094 548.207031 133.898438 549.136719 C 134.675781 550.070312 135.472656 550.984375 136.296875 551.875 C 137.117188 552.769531 137.960938 553.640625 138.824219 554.496094 C 139.6875 555.347656 140.570312 556.179688 141.476562 556.988281 C 142.378906 557.796875 143.304688 558.582031 144.246094 559.347656 C 145.1875 560.113281 146.148438 560.851562 147.128906 561.570312 C 148.105469 562.289062 149.101562 562.980469 150.117188 563.648438 C 151.128906 564.320312 152.15625 564.964844 153.199219 565.582031 C 154.242188 566.203125 155.300781 566.792969 156.375 567.363281 C 157.449219 567.929688 158.535156 568.472656 159.632812 568.984375 C 160.730469 569.5 161.84375 569.988281 162.964844 570.449219 C 164.085938 570.910156 165.222656 571.34375 166.363281 571.746094 C 167.507812 572.152344 168.660156 572.53125 169.824219 572.878906 C 170.984375 573.230469 172.15625 573.550781 173.335938 573.84375 C 174.511719 574.132812 175.695312 574.398438 176.886719 574.632812 C 178.078125 574.867188 179.273438 575.074219 180.472656 575.25 C 181.675781 575.425781 182.878906 575.574219 184.085938 575.691406 C 185.292969 575.808594 186.503906 575.898438 187.714844 575.957031 C 188.929688 576.015625 190.140625 576.046875 191.355469 576.046875 C 192.570312 576.046875 193.78125 576.015625 194.992188 575.957031 C 196.207031 575.898438 197.414062 575.808594 198.625 575.691406 C 199.832031 575.574219 201.035156 575.425781 202.238281 575.25 C 203.4375 575.074219 204.632812 574.867188 205.824219 574.632812 C 207.015625 574.398438 208.199219 574.132812 209.375 573.84375 C 210.554688 573.550781 211.722656 573.230469 212.886719 572.878906 C 214.046875 572.53125 215.203125 572.152344 216.34375 571.746094 C 217.488281 571.34375 218.621094 570.910156 219.746094 570.449219 C 220.867188 569.988281 221.980469 569.5 223.078125 568.984375 C 224.175781 568.472656 225.261719 567.929688 226.335938 567.363281 C 227.410156 566.792969 228.464844 566.203125 229.511719 565.582031 C 230.554688 564.964844 231.582031 564.320312 232.59375 563.648438 C 233.609375 562.980469 234.601562 562.289062 235.582031 561.570312 C 236.5625 560.851562 237.519531 560.113281 238.464844 559.347656 C 239.40625 558.582031 240.332031 557.796875 241.234375 556.988281 C 242.140625 556.179688 243.023438 555.347656 243.886719 554.496094 C 244.75 553.640625 245.59375 552.769531 246.414062 551.875 C 247.238281 550.984375 248.035156 550.070312 248.8125 549.136719 C 249.589844 548.207031 250.34375 547.253906 251.074219 546.285156 C 251.804688 545.316406 252.511719 544.332031 253.195312 543.328125 C 253.878906 542.324219 254.535156 541.304688 255.167969 540.269531 C 255.800781 539.234375 256.410156 538.183594 256.992188 537.121094 C 257.574219 536.054688 258.128906 534.976562 258.660156 533.886719 C 259.1875 532.792969 259.691406 531.6875 260.167969 530.570312 C 260.644531 529.457031 261.089844 528.328125 261.511719 527.191406 C 261.933594 526.050781 262.324219 524.902344 262.691406 523.746094 C 263.054688 522.589844 263.394531 521.425781 263.703125 520.25 C 264.007812 519.078125 264.289062 517.894531 264.539062 516.707031 C 264.792969 515.519531 265.011719 514.328125 265.207031 513.128906 C 265.398438 511.933594 265.5625 510.730469 265.695312 509.523438 C 265.832031 508.316406 265.9375 507.109375 266.011719 505.898438 C 266.085938 504.6875 266.132812 503.472656 266.148438 502.261719 L 266.148438 501.804688 C 343.28125 501.585938 449.859375 501.238281 543.496094 500.8125 C 543.496094 501.292969 543.496094 501.777344 543.496094 502.191406 C 543.511719 503.40625 543.558594 504.617188 543.632812 505.828125 C 543.710938 507.039062 543.8125 508.25 543.949219 509.453125 C 544.082031 510.660156 544.246094 511.863281 544.4375 513.0625 C 544.632812 514.257812 544.855469 515.453125 545.105469 516.640625 C 545.355469 517.828125 545.636719 519.007812 545.945312 520.179688 C 546.253906 521.355469 546.589844 522.519531 546.953125 523.679688 C 547.320312 524.835938 547.710938 525.984375 548.132812 527.121094 C 548.554688 528.257812 549.003906 529.386719 549.476562 530.503906 C 549.953125 531.621094 550.457031 532.722656 550.984375 533.816406 C 551.515625 534.90625 552.070312 535.984375 552.652344 537.050781 C 553.234375 538.117188 553.84375 539.164062 554.476562 540.203125 C 555.109375 541.238281 555.769531 542.257812 556.449219 543.257812 C 557.132812 544.261719 557.839844 545.25 558.570312 546.21875 C 559.300781 547.1875 560.054688 548.136719 560.832031 549.070312 C 561.609375 550 562.410156 550.914062 563.230469 551.808594 C 564.050781 552.699219 564.894531 553.574219 565.757812 554.425781 C 566.621094 555.277344 567.507812 556.109375 568.410156 556.917969 C 569.316406 557.726562 570.238281 558.515625 571.179688 559.277344 C 572.125 560.042969 573.085938 560.785156 574.0625 561.5 C 575.042969 562.21875 576.039062 562.910156 577.050781 563.582031 C 578.0625 564.25 579.089844 564.894531 580.132812 565.511719 C 581.179688 566.132812 582.238281 566.726562 583.308594 567.292969 C 584.382812 567.859375 585.46875 568.402344 586.566406 568.917969 C 587.667969 569.429688 588.777344 569.917969 589.898438 570.378906 C 591.023438 570.839844 592.15625 571.273438 593.300781 571.679688 C 594.445312 572.082031 595.597656 572.460938 596.757812 572.8125 C 597.921875 573.160156 599.089844 573.480469 600.269531 573.773438 C 601.445312 574.066406 602.632812 574.328125 603.820312 574.5625 C 605.011719 574.796875 606.207031 575.003906 607.410156 575.179688 C 608.609375 575.355469 609.8125 575.503906 611.019531 575.621094 C 612.230469 575.742188 613.4375 575.828125 614.652344 575.886719 C 615.863281 575.945312 617.078125 575.976562 618.289062 575.976562 C 619.503906 575.976562 620.714844 575.945312 621.929688 575.886719 C 623.140625 575.828125 624.351562 575.742188 625.558594 575.621094 C 626.765625 575.503906 627.96875 575.355469 629.171875 575.179688 C 630.371094 575.003906 631.566406 574.796875 632.757812 574.5625 C 633.949219 574.328125 635.132812 574.066406 636.3125 573.773438 C 637.488281 573.480469 638.660156 573.160156 639.820312 572.8125 C 640.984375 572.460938 642.136719 572.082031 643.28125 571.679688 C 644.425781 571.273438 645.558594 570.839844 646.679688 570.378906 C 647.804688 569.917969 648.914062 569.429688 650.011719 568.917969 C 651.113281 568.402344 652.199219 567.859375 653.269531 567.292969 C 654.34375 566.726562 655.402344 566.132812 656.445312 565.511719 C 657.488281 564.894531 658.515625 564.25 659.53125 563.582031 C 660.542969 562.910156 661.539062 562.21875 662.515625 561.5 C 663.496094 560.785156 664.457031 560.042969 665.398438 559.277344 C 666.339844 558.515625 667.265625 557.726562 668.167969 556.917969 C 669.074219 556.109375 669.957031 555.277344 670.820312 554.425781 C 671.6875 553.574219 672.527344 552.699219 673.351562 551.808594 C 674.171875 550.914062 674.96875 550 675.746094 549.070312 C 676.523438 548.136719 677.277344 547.1875 678.007812 546.21875 C 678.738281 545.25 679.445312 544.261719 680.128906 543.257812 C 680.8125 542.257812 681.46875 541.238281 682.101562 540.203125 C 682.738281 539.164062 683.34375 538.117188 683.925781 537.050781 C 684.507812 535.984375 685.0625 534.90625 685.59375 533.816406 C 686.125 532.722656 686.625 531.621094 687.101562 530.503906 C 687.578125 529.386719 688.027344 528.257812 688.445312 527.121094 C 688.867188 525.984375 689.261719 524.835938 689.625 523.679688 C 689.992188 522.519531 690.328125 521.355469 690.636719 520.179688 C 690.945312 519.007812 691.222656 517.828125 691.476562 516.640625 C 691.726562 515.453125 691.949219 514.257812 692.140625 513.0625 C 692.332031 511.863281 692.496094 510.660156 692.632812 509.453125 C 692.765625 508.25 692.871094 507.039062 692.945312 505.828125 C 693.019531 504.617188 693.066406 503.40625 693.082031 502.191406 C 693.082031 501.417969 693.015625 500.644531 692.988281 499.875 C 729.195312 499.570312 751.851562 499.28125 760.308594 498.976562 C 762.171875 498.96875 764.003906 498.730469 765.804688 498.257812 C 767.605469 497.785156 769.320312 497.09375 770.945312 496.183594 C 772.570312 495.273438 774.058594 494.175781 775.402344 492.890625 C 776.75 491.605469 777.914062 490.167969 778.894531 488.585938 C 786.664062 476.320312 785.394531 453.097656 774.9375 417.84375 Z M 191.347656 558.804688 C 189.496094 558.804688 187.648438 558.714844 185.804688 558.535156 C 183.960938 558.351562 182.128906 558.082031 180.3125 557.71875 C 178.496094 557.359375 176.699219 556.90625 174.925781 556.371094 C 173.152344 555.832031 171.410156 555.210938 169.699219 554.5 C 167.988281 553.789062 166.3125 553 164.679688 552.125 C 163.046875 551.253906 161.457031 550.300781 159.917969 549.273438 C 158.378906 548.242188 156.890625 547.140625 155.457031 545.964844 C 154.027344 544.789062 152.65625 543.546875 151.34375 542.238281 C 150.035156 540.925781 148.792969 539.554688 147.617188 538.121094 C 146.441406 536.691406 145.339844 535.203125 144.308594 533.664062 C 143.28125 532.121094 142.328125 530.535156 141.457031 528.902344 C 140.582031 527.265625 139.789062 525.59375 139.082031 523.882812 C 138.371094 522.171875 137.75 520.429688 137.210938 518.65625 C 136.671875 516.882812 136.222656 515.085938 135.863281 513.269531 C 135.5 511.453125 135.230469 509.621094 135.046875 507.777344 C 134.867188 505.933594 134.773438 504.085938 134.773438 502.234375 C 134.773438 500.378906 134.867188 498.53125 135.046875 496.6875 C 135.230469 494.84375 135.5 493.011719 135.863281 491.195312 C 136.222656 489.378906 136.671875 487.582031 137.210938 485.8125 C 137.75 484.039062 138.371094 482.296875 139.082031 480.582031 C 139.789062 478.871094 140.582031 477.199219 141.457031 475.566406 C 142.328125 473.929688 143.28125 472.34375 144.308594 470.800781 C 145.339844 469.261719 146.441406 467.777344 147.617188 466.34375 C 148.792969 464.910156 150.035156 463.539062 151.34375 462.230469 C 152.65625 460.917969 154.027344 459.675781 155.457031 458.5 C 156.890625 457.324219 158.378906 456.222656 159.917969 455.195312 C 161.457031 454.164062 163.046875 453.214844 164.679688 452.339844 C 166.3125 451.464844 167.988281 450.675781 169.699219 449.964844 C 171.410156 449.257812 173.152344 448.632812 174.925781 448.097656 C 176.699219 447.558594 178.496094 447.109375 180.3125 446.746094 C 182.128906 446.386719 183.960938 446.113281 185.804688 445.933594 C 187.648438 445.75 189.496094 445.660156 191.347656 445.660156 C 194.789062 445.660156 198.203125 445.980469 201.585938 446.613281 C 203.296875 446.9375 204.984375 447.339844 206.65625 447.820312 C 208.328125 448.296875 209.972656 448.855469 211.59375 449.488281 C 213.210938 450.117188 214.800781 450.824219 216.355469 451.601562 C 217.910156 452.378906 219.425781 453.226562 220.902344 454.144531 C 222.378906 455.0625 223.808594 456.046875 225.195312 457.097656 C 226.582031 458.148438 227.917969 459.257812 229.199219 460.433594 C 230.484375 461.605469 231.710938 462.835938 232.882812 464.121094 C 234.050781 465.40625 235.160156 466.742188 236.207031 468.132812 C 237.253906 469.519531 238.234375 470.953125 239.148438 472.433594 C 240.0625 473.910156 240.910156 475.429688 241.683594 476.984375 C 242.457031 478.542969 243.160156 480.132812 243.789062 481.753906 C 244.414062 483.375 244.96875 485.019531 245.445312 486.691406 C 245.921875 488.367188 246.320312 490.054688 246.640625 491.765625 C 246.960938 493.472656 247.203125 495.195312 247.363281 496.925781 C 247.523438 498.65625 247.605469 500.390625 247.609375 502.128906 C 247.609375 503.867188 247.53125 505.605469 247.375 507.335938 C 247.21875 509.066406 246.980469 510.789062 246.664062 512.496094 C 246.347656 514.207031 245.953125 515.898438 245.480469 517.570312 C 245.007812 519.246094 244.457031 520.894531 243.832031 522.515625 C 243.207031 524.140625 242.511719 525.730469 241.738281 527.289062 C 240.96875 528.847656 240.125 530.367188 239.214844 531.847656 C 238.304688 533.328125 237.324219 534.761719 236.28125 536.152344 C 235.238281 537.542969 234.132812 538.882812 232.964844 540.171875 C 231.796875 541.460938 230.574219 542.695312 229.292969 543.871094 C 228.011719 545.046875 226.679688 546.160156 225.296875 547.210938 C 223.914062 548.265625 222.484375 549.253906 221.007812 550.171875 C 219.535156 551.09375 218.019531 551.945312 216.464844 552.726562 C 214.914062 553.507812 213.328125 554.21875 211.707031 554.851562 C 210.089844 555.488281 208.445312 556.046875 206.777344 556.53125 C 205.105469 557.015625 203.417969 557.421875 201.710938 557.75 C 200 558.078125 198.28125 558.328125 196.550781 558.496094 C 194.820312 558.664062 193.085938 558.753906 191.347656 558.765625 Z M 618.199219 558.804688 C 616.347656 558.804688 614.5 558.714844 612.65625 558.535156 C 610.8125 558.351562 608.980469 558.082031 607.164062 557.71875 C 605.347656 557.359375 603.550781 556.90625 601.777344 556.371094 C 600.003906 555.832031 598.261719 555.210938 596.550781 554.5 C 594.839844 553.789062 593.164062 553 591.53125 552.125 C 589.898438 551.253906 588.308594 550.300781 586.769531 549.273438 C 585.230469 548.242188 583.742188 547.140625 582.3125 545.964844 C 580.878906 544.789062 579.507812 543.546875 578.195312 542.238281 C 576.886719 540.925781 575.644531 539.554688 574.46875 538.121094 C 573.292969 536.691406 572.191406 535.203125 571.160156 533.664062 C 570.132812 532.121094 569.179688 530.535156 568.308594 528.902344 C 567.433594 527.265625 566.640625 525.59375 565.933594 523.882812 C 565.222656 522.171875 564.601562 520.429688 564.0625 518.65625 C 563.523438 516.882812 563.074219 515.085938 562.714844 513.269531 C 562.351562 511.453125 562.082031 509.621094 561.898438 507.777344 C 561.71875 505.933594 561.628906 504.085938 561.628906 502.234375 C 561.628906 500.378906 561.71875 498.53125 561.898438 496.6875 C 562.082031 494.84375 562.351562 493.011719 562.714844 491.195312 C 563.074219 489.378906 563.523438 487.582031 564.0625 485.8125 C 564.601562 484.039062 565.222656 482.296875 565.933594 480.582031 C 566.640625 478.871094 567.433594 477.199219 568.308594 475.566406 C 569.179688 473.929688 570.132812 472.34375 571.160156 470.800781 C 572.191406 469.261719 573.292969 467.777344 574.46875 466.34375 C 575.644531 464.910156 576.886719 463.539062 578.195312 462.230469 C 579.507812 460.917969 580.878906 459.675781 582.3125 458.5 C 583.742188 457.324219 585.230469 456.222656 586.769531 455.195312 C 588.308594 454.164062 589.898438 453.214844 591.53125 452.339844 C 593.164062 451.464844 594.839844 450.675781 596.550781 449.964844 C 598.261719 449.257812 600.003906 448.632812 601.777344 448.097656 C 603.550781 447.558594 605.347656 447.109375 607.164062 446.746094 C 608.980469 446.386719 610.8125 446.113281 612.65625 445.933594 C 614.5 445.75 616.347656 445.660156 618.199219 445.660156 C 621.597656 445.664062 624.96875 445.960938 628.316406 446.558594 C 630.027344 446.871094 631.726562 447.269531 633.402344 447.742188 C 635.082031 448.214844 636.734375 448.761719 638.363281 449.390625 C 639.988281 450.015625 641.585938 450.714844 643.148438 451.488281 C 644.710938 452.261719 646.234375 453.105469 647.71875 454.019531 C 649.203125 454.933594 650.644531 455.914062 652.035156 456.960938 C 653.429688 458.007812 654.773438 459.117188 656.066406 460.289062 C 657.355469 461.460938 658.589844 462.691406 659.769531 463.976562 C 660.945312 465.261719 662.0625 466.597656 663.117188 467.988281 C 664.171875 469.375 665.160156 470.8125 666.082031 472.289062 C 667.003906 473.769531 667.851562 475.289062 668.632812 476.847656 C 669.414062 478.410156 670.121094 480 670.757812 481.625 C 671.390625 483.25 671.949219 484.898438 672.429688 486.574219 C 672.910156 488.25 673.3125 489.945312 673.640625 491.65625 C 673.964844 493.371094 674.207031 495.09375 674.375 496.832031 C 674.539062 498.566406 674.625 500.308594 674.628906 502.050781 C 674.632812 503.792969 674.554688 505.535156 674.398438 507.269531 C 674.242188 509.007812 674.007812 510.734375 673.691406 512.449219 C 673.375 514.164062 672.980469 515.859375 672.507812 517.539062 C 672.035156 519.214844 671.484375 520.867188 670.859375 522.496094 C 670.234375 524.125 669.535156 525.71875 668.761719 527.28125 C 667.988281 528.84375 667.144531 530.367188 666.230469 531.851562 C 665.316406 533.335938 664.335938 534.777344 663.289062 536.171875 C 662.238281 537.566406 661.128906 538.90625 659.960938 540.199219 C 658.789062 541.492188 657.558594 542.726562 656.273438 543.902344 C 654.988281 545.082031 653.652344 546.195312 652.261719 547.25 C 650.875 548.304688 649.4375 549.292969 647.960938 550.214844 C 646.480469 551.136719 644.960938 551.988281 643.402344 552.769531 C 641.84375 553.550781 640.25 554.257812 638.625 554.890625 C 637 555.527344 635.351562 556.085938 633.675781 556.566406 C 632 557.046875 630.304688 557.449219 628.59375 557.773438 C 626.878906 558.101562 625.15625 558.34375 623.417969 558.511719 C 621.683594 558.675781 619.945312 558.761719 618.199219 558.765625 Z M 763.398438 478.886719 C 763.207031 479.214844 762.972656 479.511719 762.695312 479.773438 C 762.417969 480.035156 762.109375 480.25 761.769531 480.421875 C 761.429688 480.59375 761.070312 480.714844 760.695312 480.78125 C 760.320312 480.847656 759.941406 480.859375 759.5625 480.816406 C 751.203125 481.109375 727.277344 481.425781 690.144531 481.714844 C 689.828125 480.570312 689.414062 479.464844 689.039062 478.335938 C 688.792969 477.601562 688.585938 476.84375 688.308594 476.125 C 687.675781 474.414062 686.929688 472.761719 686.226562 471.117188 C 686.101562 470.84375 686.003906 470.550781 685.867188 470.277344 C 684.96875 468.371094 683.992188 466.507812 682.957031 464.757812 C 682.625 464.191406 682.253906 463.667969 681.90625 463.101562 C 681.160156 461.886719 680.402344 460.671875 679.589844 459.5 C 679.121094 458.835938 678.625 458.203125 678.140625 457.554688 C 677.382812 456.546875 676.621094 455.527344 675.820312 454.558594 C 675.269531 453.882812 674.675781 453.25 674.097656 452.601562 C 673.296875 451.703125 672.496094 450.808594 671.667969 449.953125 C 671.035156 449.316406 670.386719 448.710938 669.738281 448.101562 C 668.894531 447.289062 668.027344 446.488281 667.144531 445.714844 C 666.261719 444.941406 665.761719 444.554688 665.046875 443.992188 C 664.328125 443.425781 663.222656 442.609375 662.285156 441.867188 C 661.347656 441.121094 660.796875 440.816406 660.035156 440.304688 C 659.277344 439.796875 658.105469 439.035156 657.125 438.429688 C 656.144531 437.824219 655.550781 437.492188 654.738281 437.050781 C 653.925781 436.609375 652.695312 435.960938 651.660156 435.433594 C 650.832031 435.019531 650.019531 434.621094 649.175781 434.25 C 648.101562 433.753906 647.011719 433.308594 645.90625 432.867188 C 645.066406 432.539062 644.238281 432.191406 643.367188 431.890625 C 642.238281 431.488281 641.0625 431.128906 639.90625 430.785156 C 639.050781 430.523438 638.207031 430.246094 637.351562 430.027344 C 636.109375 429.695312 634.855469 429.445312 633.597656 429.183594 C 632.769531 429.003906 631.957031 428.8125 631.128906 428.660156 C 629.75 428.425781 628.285156 428.261719 626.867188 428.09375 C 626.148438 428.011719 625.484375 427.886719 624.742188 427.832031 C 622.589844 427.640625 620.40625 427.527344 618.199219 427.527344 C 613.769531 427.527344 609.375 427.921875 605.015625 428.703125 C 600.65625 429.484375 596.398438 430.644531 592.242188 432.183594 C 588.089844 433.722656 584.105469 435.617188 580.285156 437.863281 C 576.46875 440.109375 572.878906 442.675781 569.519531 445.5625 C 567.945312 446.941406 566.46875 448.324219 565.023438 449.703125 C 564.566406 450.160156 564.136719 450.65625 563.640625 451.082031 C 562.691406 452.105469 561.75 453.125 560.882812 454.199219 C 560.386719 454.78125 559.917969 455.386719 559.503906 455.980469 C 558.703125 457.003906 557.929688 458.023438 557.183594 459.070312 C 556.730469 459.71875 556.289062 460.355469 555.804688 461.015625 C 555.085938 462.09375 554.425781 463.199219 553.75 464.328125 C 553.375 464.964844 552.988281 465.597656 552.628906 466.246094 C 551.925781 467.515625 551.25 468.828125 550.65625 470.136719 C 550.410156 470.664062 550.132812 471.160156 549.898438 471.699219 C 549.070312 473.546875 548.3125 475.421875 547.636719 477.339844 C 547.523438 477.660156 547.441406 477.988281 547.332031 478.308594 C 546.863281 479.6875 546.40625 481.066406 546.019531 482.445312 C 450.8125 482.886719 341.804688 483.246094 263.75 483.46875 C 263.402344 482.085938 262.976562 480.707031 262.546875 479.4375 C 262.421875 479.039062 262.328125 478.652344 262.203125 478.265625 C 261.539062 476.320312 260.824219 474.402344 259.996094 472.523438 C 259.761719 472 259.5 471.503906 259.265625 470.992188 C 258.644531 469.613281 258.007812 468.234375 257.304688 466.992188 C 256.960938 466.328125 256.574219 465.679688 256.199219 465.03125 C 255.539062 463.886719 254.820312 462.769531 254.160156 461.667969 C 253.734375 460.996094 253.277344 460.332031 252.777344 459.679688 C 252.035156 458.617188 251.273438 457.566406 250.472656 456.546875 C 250.003906 455.925781 249.535156 455.304688 249.09375 454.699219 C 248.175781 453.621094 247.253906 452.574219 246.335938 451.550781 C 245.878906 451.054688 245.453125 450.542969 244.953125 450.0625 C 243.574219 448.570312 242.03125 447.136719 240.457031 445.757812 C 238.769531 444.285156 237.015625 442.894531 235.203125 441.578125 C 233.390625 440.265625 231.523438 439.035156 229.597656 437.890625 C 227.675781 436.742188 225.703125 435.683594 223.683594 434.714844 C 221.664062 433.746094 219.605469 432.871094 217.507812 432.085938 C 215.410156 431.300781 213.28125 430.613281 211.125 430.019531 C 208.964844 429.425781 206.78125 428.933594 204.578125 428.535156 C 202.375 428.136719 200.15625 427.839844 197.925781 427.644531 C 195.695312 427.445312 193.460938 427.347656 191.222656 427.351562 C 188.980469 427.351562 186.746094 427.457031 184.515625 427.660156 C 182.289062 427.863281 180.070312 428.167969 177.867188 428.570312 C 175.664062 428.972656 173.484375 429.472656 171.328125 430.070312 C 169.167969 430.667969 167.042969 431.363281 164.945312 432.152344 C 162.851562 432.941406 160.792969 433.824219 158.777344 434.796875 C 156.761719 435.773438 154.792969 436.835938 152.871094 437.984375 C 150.949219 439.136719 149.085938 440.371094 147.273438 441.691406 C 145.464844 443.007812 143.71875 444.40625 142.03125 445.878906 C 140.460938 447.261719 138.96875 448.640625 137.519531 450.214844 C 137.050781 450.695312 136.625 451.207031 136.140625 451.703125 C 135.1875 452.738281 134.25 453.800781 133.382812 454.878906 C 132.886719 455.484375 132.414062 456.117188 131.933594 456.738281 C 131.144531 457.773438 130.375 458.808594 129.640625 459.886719 C 129.1875 460.546875 128.746094 461.265625 128.261719 461.902344 C 127.558594 463.003906 126.882812 464.121094 126.261719 465.253906 C 125.875 465.914062 125.488281 466.632812 125.128906 467.253906 C 124.457031 468.550781 123.824219 469.863281 123.226562 471.1875 C 122.976562 471.738281 122.6875 472.277344 122.453125 472.828125 C 121.652344 474.71875 120.921875 476.625 120.273438 478.570312 C 120.148438 478.96875 120.050781 479.382812 119.929688 479.785156 C 119.5 481.164062 119.074219 482.542969 118.726562 483.839844 L 92.691406 483.910156 L 47.859375 475.175781 L 72.601562 354.191406 L 140.707031 346.808594 L 142.972656 344.667969 C 169.492188 319.292969 265.460938 236.53125 387.203125 236.53125 C 463.339844 236.53125 535.300781 269.511719 601.078125 334.5 L 602.761719 336.15625 L 605.035156 336.789062 C 647.605469 348.671875 724.984375 375.855469 743.019531 382.214844 C 745.863281 389.210938 752.195312 405.367188 757.441406 423.003906 C 769.679688 464.273438 765.113281 476.210938 763.398438 478.886719 Z M 763.398438 478.886719 "/></g></g></svg>
