<svg xmlns="http://www.w3.org/2000/svg" version="1.2" viewBox="0 0 810 810"><defs><clipPath id="a"><path d="M604 114.105h114V293H604Zm0 0"/></clipPath><clipPath id="b"><path d="M92 563h114v178.855H92Zm0 0"/></clipPath></defs><path d="M395.273.29c-33.945 1.144-84.02 12.448-123.035 28.308-64.039 26.03-125.683 75.648-166.586 134.078-18.132 25.906-42.558 66.465-51.566 85.617-23.168 49.281-41.082 119.457-47.93 187.785-6.14 61.246 10.555 142.91 41.024 200.695 36.902 69.989 68.793 99.063 139.343 127.043 47 18.637 130.872 37.543 187.309 42.215 28.574 2.367 35.543 2.367 66.672-.008 33.371-2.546 60.219-7.675 94.742-18.105 66.133-19.98 108.07-43.523 153.14-85.973 27.759-26.144 55.47-64.71 74.747-104.03 14.543-29.665 33.523-85.368 40.844-119.88 5.02-23.656 5.628-31.156 5.734-70.902.105-38.867-.5-47.367-4.836-67.727-10.492-49.285-29.363-96.781-51.715-130.164-19.37-28.933-52.95-72.601-68.09-88.558C649.125 82.809 586.13 42.3 539.45 27.047 514.05 18.75 431.347 1.91 408.753.437c-4.11-.269-8.633-.312-13.48-.148Zm0 0" style="stroke:none;fill-rule:nonzero;fill:#f6f5f1;fill-opacity:1"/><path d="M588.531 246.48c-6.613-13.226-17.633-22.042-30.86-25.718l-180.03-49.23c-4.41-.735-8.082-1.47-12.493-1.47-23.515 0-45.558 17.633-52.171 42.618l-96.262 354.918c-3.676 14.695-2.203 29.39 3.676 41.882 6.613 13.227 17.632 22.047 30.859 25.72l180.031 49.234c4.41.734 8.082 1.468 12.492 1.468 18.372 0 35.27-11.023 45.559-27.187.734-1.469 1.469-2.938 2.941-5.145 1.47-3.672 2.938-6.613 4.407-10.285l96.261-355.652c.735-3.676 1.47-7.348 2.204-11.758v-7.348c-.735-7.347-2.938-14.699-6.614-22.047Zm-69.804 2.208c-.735 2.937-3.676 5.14-7.352 5.14h-2.203l-108.02-29.39c-3.672-.735-5.875-5.145-5.14-8.817.734-3.676 5.14-5.879 8.816-5.144l108.02 29.39c5.14.735 7.347 4.41 5.879 8.82Zm55.109 54.375-86.707 317.44-251.309-68.335 85.973-317.441ZM339.43 620.503c.734-3.671 5.144-5.878 8.816-5.144l10.29 2.942c3.671.734 5.878 5.144 5.144 8.816-.735 2.942-3.676 5.145-7.348 5.145h-2.207l-10.285-2.942c-2.942-1.468-5.88-5.14-4.41-8.816ZM597.352 174.469c-3.676-.735-8.082 1.469-8.82 5.144-.735 3.676 1.472 8.082 5.144 8.817 34.539 9.554 55.113 44.824 45.558 79.363-.734 3.672 1.47 8.082 5.145 8.816h2.203c2.941 0 5.879-2.203 7.348-5.144 10.289-41.883-14.696-85.238-56.578-96.996Zm0 0" style="stroke:none;fill-rule:nonzero;fill:#5c4a51;fill-opacity:1"/><g clip-path="url(#a)"><path d="M698.754 181.082c-18.367-32.332-49.23-55.844-85.238-66.133-3.672-.734-8.082 1.469-8.817 5.145-.734 3.672 1.469 8.082 5.145 8.816 32.332 8.82 59.52 30.13 76.418 58.785 16.902 29.395 21.312 63.196 12.492 95.528-.734 3.675 1.473 8.082 5.144 8.816h2.207c2.938 0 5.875-2.203 7.348-5.14 8.817-35.274 3.672-73.485-14.7-105.817Zm0 0" style="stroke:none;fill-rule:nonzero;fill:#5c4a51;fill-opacity:1"/></g><path d="M215.98 667.531c-16.902-4.406-30.863-15.43-38.945-30.125-8.82-14.699-11.023-32.332-6.613-49.234.734-3.672-1.469-8.082-5.145-8.817-3.675-.734-8.082 1.47-8.816 5.145-11.758 41.883 13.226 85.973 55.844 97.73h2.207c2.937 0 5.879-2.207 7.347-5.144.735-4.41-2.207-8.082-5.879-9.555Zm0 0" style="stroke:none;fill-rule:nonzero;fill:#5c4a51;fill-opacity:1"/><g clip-path="url(#b)"><path d="M199.813 727.055c-32.333-8.82-59.52-30.13-76.418-58.79-16.903-29.39-21.313-63.19-12.493-95.523.735-3.676-1.472-8.086-5.144-8.82-3.676-.735-8.082 1.473-8.82 5.144-9.551 36.008-5.141 74.22 13.964 106.551 19.106 32.332 49.23 55.844 85.239 66.133h2.203c2.941 0 5.879-2.207 7.347-5.145.735-4.41-1.468-8.816-5.879-9.55Zm0 0" style="stroke:none;fill-rule:nonzero;fill:#5c4a51;fill-opacity:1"/></g></svg>
