<svg xmlns="http://www.w3.org/2000/svg" xmlns:xlink="http://www.w3.org/1999/xlink" zoomAndPan="magnify" viewBox="0 0 810 809.999993" preserveAspectRatio="xMidYMid meet" version="1.2"><defs><clipPath id="fb37990779"><path d="M 4 1.289062 L 810 1.289062 L 810 809.789062 L 4 809.789062 Z M 4 1.289062 "/></clipPath><clipPath id="a4dc56a594"><path d="M 81.027344 175 L 708.777344 175 L 708.777344 637.441406 L 81.027344 637.441406 Z M 81.027344 175 "/></clipPath><clipPath id="9e37ba767d"><path d="M 237 67.441406 L 294 67.441406 L 294 158 L 237 158 Z M 237 67.441406 "/></clipPath><clipPath id="c949df5910"><path d="M 305 67.441406 L 369 67.441406 L 369 158 L 305 158 Z M 305 67.441406 "/></clipPath><clipPath id="4019a1c77b"><path d="M 368 67.441406 L 430 67.441406 L 430 158 L 368 158 Z M 368 67.441406 "/></clipPath><clipPath id="57bc637e3b"><path d="M 437 67.441406 L 491 67.441406 L 491 158 L 437 158 Z M 437 67.441406 "/></clipPath><clipPath id="c29c5e6d01"><path d="M 499 67.441406 L 552 67.441406 L 552 158 L 499 158 Z M 499 67.441406 "/></clipPath><clipPath id="21c6c5f78b"><path d="M 224.894531 53.003906 L 570.890625 53.003906 L 570.890625 169.09375 L 224.894531 169.09375 Z M 224.894531 53.003906 "/></clipPath><clipPath id="3f539d7227"><path d="M 263.144531 53.003906 L 532.296875 53.003906 C 542.441406 53.003906 552.167969 57.035156 559.34375 64.207031 C 566.515625 71.382812 570.546875 81.109375 570.546875 91.253906 L 570.546875 130.84375 C 570.546875 140.988281 566.515625 150.714844 559.34375 157.890625 C 552.167969 165.0625 542.441406 169.09375 532.296875 169.09375 L 263.144531 169.09375 C 253 169.09375 243.273438 165.0625 236.097656 157.890625 C 228.925781 150.714844 224.894531 140.988281 224.894531 130.84375 L 224.894531 91.253906 C 224.894531 81.109375 228.925781 71.382812 236.097656 64.207031 C 243.273438 57.035156 253 53.003906 263.144531 53.003906 Z M 263.144531 53.003906 "/></clipPath></defs><g id="3ba0557e6d"><g clip-rule="nonzero" clip-path="url(#fb37990779)"><path style=" stroke:none;fill-rule:nonzero;fill:#f6f5f1;fill-opacity:1;" d="M 395.273438 1.578125 C 361.328125 2.71875 311.253906 14.027344 272.238281 29.882812 C 208.199219 55.917969 146.554688 105.535156 105.652344 163.964844 C 87.519531 189.871094 63.09375 230.429688 54.085938 249.582031 C 30.917969 298.863281 13.003906 369.039062 6.15625 437.367188 C 0.015625 498.613281 16.710938 580.277344 47.179688 638.0625 C 84.082031 708.050781 115.972656 737.125 186.523438 765.101562 C 233.523438 783.742188 317.394531 802.648438 373.832031 807.320312 C 402.40625 809.6875 409.375 809.683594 440.503906 807.3125 C 473.875 804.765625 500.722656 799.636719 535.246094 789.207031 C 601.378906 769.226562 643.316406 745.679688 688.386719 703.234375 C 716.144531 677.089844 743.855469 638.523438 763.132812 599.203125 C 777.675781 569.535156 796.65625 513.835938 803.976562 479.324219 C 808.996094 455.667969 809.605469 448.167969 809.710938 408.421875 C 809.816406 369.554688 809.210938 361.054688 804.875 340.695312 C 794.382812 291.410156 775.511719 243.914062 753.160156 210.53125 C 733.789062 181.597656 700.210938 137.929688 685.070312 121.972656 C 649.125 84.097656 586.128906 43.589844 539.449219 28.335938 C 514.050781 20.035156 431.347656 3.199219 408.753906 1.726562 C 404.644531 1.457031 400.121094 1.414062 395.273438 1.578125 Z M 395.273438 1.578125 "/></g><g clip-rule="nonzero" clip-path="url(#a4dc56a594)"><path style=" stroke:none;fill-rule:nonzero;fill:#5c4a51;fill-opacity:1;" d="M 667.199219 622.109375 L 590.722656 622.109375 L 590.722656 407.03125 L 667.199219 407.03125 Z M 198.949219 407.03125 L 198.949219 622.109375 L 122.472656 622.109375 L 122.472656 407.03125 Z M 93.988281 347.175781 L 198.949219 347.175781 L 198.949219 394.332031 L 93.988281 394.332031 Z M 578.019531 262.816406 L 578.019531 622.109375 L 469.019531 622.109375 L 469.019531 586.949219 C 469.019531 546.050781 435.738281 512.773438 394.835938 512.773438 C 353.933594 512.773438 320.664062 546.050781 320.664062 586.949219 L 320.664062 622.109375 L 211.652344 622.109375 L 211.652344 262.816406 Z M 184.003906 188.453125 L 605.667969 188.453125 L 605.667969 250.117188 L 184.003906 250.117188 Z M 456.308594 622.109375 L 333.367188 622.109375 L 333.367188 586.949219 C 333.367188 553.050781 360.941406 525.472656 394.835938 525.472656 C 428.738281 525.472656 456.308594 553.050781 456.308594 586.949219 Z M 695.6875 347.175781 L 695.6875 394.332031 L 590.722656 394.332031 L 590.722656 347.175781 Z M 702.035156 407.03125 C 705.546875 407.03125 708.390625 404.191406 708.390625 400.679688 L 708.390625 340.824219 C 708.390625 337.320312 705.546875 334.476562 702.035156 334.476562 L 590.722656 334.476562 L 590.722656 262.816406 L 612.023438 262.816406 C 615.527344 262.816406 618.378906 259.976562 618.378906 256.464844 L 618.378906 182.105469 C 618.378906 178.597656 615.527344 175.753906 612.023438 175.753906 L 177.648438 175.753906 C 174.144531 175.753906 171.300781 178.597656 171.300781 182.105469 L 171.300781 256.464844 C 171.300781 259.976562 174.144531 262.816406 177.648438 262.816406 L 198.949219 262.816406 L 198.949219 334.476562 L 87.636719 334.476562 C 84.128906 334.476562 81.28125 337.320312 81.28125 340.824219 L 81.28125 400.679688 C 81.28125 404.191406 84.128906 407.03125 87.636719 407.03125 L 109.769531 407.03125 L 109.769531 624.34375 L 88.429688 624.34375 C 84.921875 624.34375 82.078125 627.1875 82.078125 630.699219 C 82.078125 634.203125 84.921875 637.046875 88.429688 637.046875 L 702.035156 637.046875 C 705.546875 637.046875 708.390625 634.203125 708.390625 630.699219 C 708.390625 627.1875 705.546875 624.34375 702.035156 624.34375 L 679.902344 624.34375 L 679.902344 407.03125 L 702.035156 407.03125 "/></g><g clip-rule="nonzero" clip-path="url(#9e37ba767d)"><path style=" stroke:none;fill-rule:nonzero;fill:#5c4a51;fill-opacity:1;" d="M 244.046875 157.757812 C 247.550781 157.757812 250.402344 154.914062 250.402344 151.410156 L 250.402344 118.917969 L 280.953125 118.917969 L 280.953125 151.410156 C 280.953125 154.914062 283.796875 157.757812 287.300781 157.757812 C 290.8125 157.757812 293.65625 154.914062 293.65625 151.410156 L 293.65625 73.726562 C 293.65625 70.222656 290.8125 67.375 287.300781 67.375 C 283.796875 67.375 280.953125 70.222656 280.953125 73.726562 L 280.953125 106.21875 L 250.402344 106.21875 L 250.402344 73.726562 C 250.402344 70.222656 247.550781 67.375 244.046875 67.375 C 240.542969 67.375 237.695312 70.222656 237.695312 73.726562 L 237.695312 151.410156 C 237.695312 154.914062 240.542969 157.757812 244.046875 157.757812 "/></g><g clip-rule="nonzero" clip-path="url(#c949df5910)"><path style=" stroke:none;fill-rule:nonzero;fill:#5c4a51;fill-opacity:1;" d="M 336.886719 80.082031 C 347.109375 80.082031 355.746094 94.957031 355.746094 112.566406 C 355.746094 130.179688 347.109375 145.058594 336.886719 145.058594 C 326.664062 145.058594 318.027344 130.179688 318.027344 112.566406 C 318.027344 94.957031 326.664062 80.082031 336.886719 80.082031 Z M 336.886719 157.757812 C 354.589844 157.757812 368.453125 137.910156 368.453125 112.566406 C 368.453125 87.226562 354.589844 67.375 336.886719 67.375 C 319.1875 67.375 305.324219 87.226562 305.324219 112.566406 C 305.324219 137.910156 319.1875 157.757812 336.886719 157.757812 "/></g><g clip-rule="nonzero" clip-path="url(#4019a1c77b)"><path style=" stroke:none;fill-rule:nonzero;fill:#5c4a51;fill-opacity:1;" d="M 374.703125 80.082031 L 392.722656 80.082031 L 392.722656 151.410156 C 392.722656 154.914062 395.570312 157.757812 399.078125 157.757812 C 402.582031 157.757812 405.429688 154.914062 405.429688 151.410156 L 405.429688 80.082031 L 423.449219 80.082031 C 426.953125 80.082031 429.800781 77.234375 429.800781 73.726562 C 429.800781 70.222656 426.953125 67.375 423.449219 67.375 L 374.703125 67.375 C 371.199219 67.375 368.351562 70.222656 368.351562 73.726562 C 368.351562 77.234375 371.199219 80.082031 374.703125 80.082031 "/></g><g clip-rule="nonzero" clip-path="url(#57bc637e3b)"><path style=" stroke:none;fill-rule:nonzero;fill:#5c4a51;fill-opacity:1;" d="M 443.617188 157.757812 L 484.21875 157.757812 C 487.722656 157.757812 490.570312 154.914062 490.570312 151.410156 C 490.570312 147.898438 487.722656 145.058594 484.21875 145.058594 L 449.972656 145.058594 L 449.972656 118.917969 L 466.734375 118.917969 C 470.238281 118.917969 473.089844 116.078125 473.089844 112.566406 C 473.089844 109.058594 470.238281 106.21875 466.734375 106.21875 L 449.972656 106.21875 L 449.972656 80.082031 L 484.21875 80.082031 C 487.722656 80.082031 490.570312 77.234375 490.570312 73.726562 C 490.570312 70.222656 487.722656 67.375 484.21875 67.375 L 443.617188 67.375 C 440.113281 67.375 437.261719 70.222656 437.261719 73.726562 L 437.261719 151.410156 C 437.261719 154.914062 440.113281 157.757812 443.617188 157.757812 "/></g><g clip-rule="nonzero" clip-path="url(#c29c5e6d01)"><path style=" stroke:none;fill-rule:nonzero;fill:#5c4a51;fill-opacity:1;" d="M 506.128906 157.757812 L 545.628906 157.757812 C 549.132812 157.757812 551.976562 154.914062 551.976562 151.410156 C 551.976562 147.898438 549.132812 145.058594 545.628906 145.058594 L 512.484375 145.058594 L 512.484375 73.726562 C 512.484375 70.222656 509.632812 67.375 506.128906 67.375 C 502.625 67.375 499.773438 70.222656 499.773438 73.726562 L 499.773438 151.410156 C 499.773438 154.914062 502.625 157.757812 506.128906 157.757812 "/></g><path style=" stroke:none;fill-rule:nonzero;fill:#5c4a51;fill-opacity:1;" d="M 261.214844 297.410156 L 313.792969 297.410156 L 313.792969 325.527344 L 261.214844 325.527344 Z M 254.859375 338.226562 L 320.140625 338.226562 C 323.652344 338.226562 326.496094 335.386719 326.496094 331.878906 L 326.496094 291.058594 C 326.496094 287.550781 323.652344 284.710938 320.140625 284.710938 L 254.859375 284.710938 C 251.355469 284.710938 248.503906 287.550781 248.503906 291.058594 L 248.503906 331.878906 C 248.503906 335.386719 251.355469 338.226562 254.859375 338.226562 "/><path style=" stroke:none;fill-rule:nonzero;fill:#5c4a51;fill-opacity:1;" d="M 368.550781 297.410156 L 421.121094 297.410156 L 421.121094 325.527344 L 368.550781 325.527344 Z M 362.199219 338.226562 L 427.476562 338.226562 C 430.980469 338.226562 433.832031 335.386719 433.832031 331.878906 L 433.832031 291.058594 C 433.832031 287.550781 430.980469 284.710938 427.476562 284.710938 L 362.199219 284.710938 C 358.691406 284.710938 355.847656 287.550781 355.847656 291.058594 L 355.847656 331.878906 C 355.847656 335.386719 358.691406 338.226562 362.199219 338.226562 "/><path style=" stroke:none;fill-rule:nonzero;fill:#5c4a51;fill-opacity:1;" d="M 475.890625 297.410156 L 528.460938 297.410156 L 528.460938 325.527344 L 475.890625 325.527344 Z M 469.535156 338.226562 L 534.8125 338.226562 C 538.320312 338.226562 541.167969 335.386719 541.167969 331.878906 L 541.167969 291.058594 C 541.167969 287.550781 538.320312 284.710938 534.8125 284.710938 L 469.535156 284.710938 C 466.03125 284.710938 463.179688 287.550781 463.179688 291.058594 L 463.179688 331.878906 C 463.179688 335.386719 466.03125 338.226562 469.535156 338.226562 "/><path style=" stroke:none;fill-rule:nonzero;fill:#5c4a51;fill-opacity:1;" d="M 261.214844 374.464844 L 313.792969 374.464844 L 313.792969 402.582031 L 261.214844 402.582031 Z M 254.859375 415.28125 L 320.140625 415.28125 C 323.652344 415.28125 326.496094 412.441406 326.496094 408.933594 L 326.496094 368.117188 C 326.496094 364.605469 323.652344 361.765625 320.140625 361.765625 L 254.859375 361.765625 C 251.355469 361.765625 248.503906 364.605469 248.503906 368.117188 L 248.503906 408.933594 C 248.503906 412.441406 251.355469 415.28125 254.859375 415.28125 "/><path style=" stroke:none;fill-rule:nonzero;fill:#5c4a51;fill-opacity:1;" d="M 368.550781 374.464844 L 421.121094 374.464844 L 421.121094 402.582031 L 368.550781 402.582031 Z M 362.199219 415.28125 L 427.476562 415.28125 C 430.980469 415.28125 433.832031 412.441406 433.832031 408.933594 L 433.832031 368.117188 C 433.832031 364.605469 430.980469 361.765625 427.476562 361.765625 L 362.199219 361.765625 C 358.691406 361.765625 355.847656 364.605469 355.847656 368.117188 L 355.847656 408.933594 C 355.847656 412.441406 358.691406 415.28125 362.199219 415.28125 "/><path style=" stroke:none;fill-rule:nonzero;fill:#5c4a51;fill-opacity:1;" d="M 475.890625 374.464844 L 528.460938 374.464844 L 528.460938 402.582031 L 475.890625 402.582031 Z M 469.535156 415.28125 L 534.8125 415.28125 C 538.320312 415.28125 541.167969 412.441406 541.167969 408.933594 L 541.167969 368.117188 C 541.167969 364.605469 538.320312 361.765625 534.8125 361.765625 L 469.535156 361.765625 C 466.03125 361.765625 463.179688 364.605469 463.179688 368.117188 L 463.179688 408.933594 C 463.179688 412.441406 466.03125 415.28125 469.535156 415.28125 "/><path style=" stroke:none;fill-rule:nonzero;fill:#5c4a51;fill-opacity:1;" d="M 261.214844 451.519531 L 313.792969 451.519531 L 313.792969 479.636719 L 261.214844 479.636719 Z M 254.859375 492.335938 L 320.140625 492.335938 C 323.652344 492.335938 326.496094 489.496094 326.496094 485.988281 L 326.496094 445.171875 C 326.496094 441.660156 323.652344 438.820312 320.140625 438.820312 L 254.859375 438.820312 C 251.355469 438.820312 248.503906 441.660156 248.503906 445.171875 L 248.503906 485.988281 C 248.503906 489.496094 251.355469 492.335938 254.859375 492.335938 "/><path style=" stroke:none;fill-rule:nonzero;fill:#5c4a51;fill-opacity:1;" d="M 368.550781 451.519531 L 421.121094 451.519531 L 421.121094 479.636719 L 368.550781 479.636719 Z M 362.199219 492.335938 L 427.476562 492.335938 C 430.980469 492.335938 433.832031 489.496094 433.832031 485.988281 L 433.832031 445.171875 C 433.832031 441.660156 430.980469 438.820312 427.476562 438.820312 L 362.199219 438.820312 C 358.691406 438.820312 355.847656 441.660156 355.847656 445.171875 L 355.847656 485.988281 C 355.847656 489.496094 358.691406 492.335938 362.199219 492.335938 "/><path style=" stroke:none;fill-rule:nonzero;fill:#5c4a51;fill-opacity:1;" d="M 475.890625 451.519531 L 528.460938 451.519531 L 528.460938 479.636719 L 475.890625 479.636719 Z M 469.535156 492.335938 L 534.8125 492.335938 C 538.320312 492.335938 541.167969 489.496094 541.167969 485.988281 L 541.167969 445.171875 C 541.167969 441.660156 538.320312 438.820312 534.8125 438.820312 L 469.535156 438.820312 C 466.03125 438.820312 463.179688 441.660156 463.179688 445.171875 L 463.179688 485.988281 C 463.179688 489.496094 466.03125 492.335938 469.535156 492.335938 "/><g clip-rule="nonzero" clip-path="url(#21c6c5f78b)"><g clip-rule="nonzero" clip-path="url(#3f539d7227)"><path style=" stroke:none;fill-rule:nonzero;fill:#f6f5f1;fill-opacity:1;" d="M 224.894531 53.003906 L 570.4375 53.003906 L 570.4375 169.09375 L 224.894531 169.09375 Z M 224.894531 53.003906 "/></g></g></g></svg>
