<svg xmlns="http://www.w3.org/2000/svg" viewBox="0 0 25 26">
  <g fill-rule="evenodd">
    <path d="M12.2026346 15.3574558c1.346345 0 2.4439677-1.0956565 2.4439677-2.4429847 0-.531853-.1740073-1.0229076-.4620534-1.4240093-.4438662-.6154159-1.1654561-1.01897533-1.9804397-1.01897533-.8154751 0-1.5365734.40306793-1.9814227 1.01848373-.28902921.4011017-.46156193.8921564-.46205348 1.4240094-.00147464 1.3473281 1.09516498 2.4434762 2.44200158 2.4434762zM17.5373856 9.92587019V7.57333004l-.3062333.00098309-2.0467984.0063901.0078647 2.35303169z"/>
    <path d="M12.2031261.711345C5.4743501.711345 0 6.1856951 0 12.9144711c0 6.7282845 5.4743501 12.2031261 12.2031261 12.2031261 6.7282845 0 12.2031261-5.4748416 12.2031261-12.2031261 0-6.728776-5.4738585-12.2031261-12.2031261-12.2031261zm6.9401409 10.7791168v5.6822741c0 1.4800456-1.2033051 2.6828592-2.6823676 2.6828592H7.94535288c-1.47955408 0-2.68236765-1.2028136-2.68236765-2.6828592V8.65718943c0-1.47955408 1.20281357-2.68236765 2.68236765-2.68236765h8.51505492c1.4795541 0 2.6828592 1.20281357 2.6828592 2.68236765v2.83327237z"/>
    <path d="M15.9993375 12.9144711c0 2.0925122-1.7027161 3.7962114-3.7962114 3.7962114s-3.79571979-1.7036992-3.79571979-3.7962114c0-.5033433.10027543-.984567.27919825-1.4240093H6.6147373v5.6822741c0 .73437.59624555 1.3291409 1.33012403 1.3291409h8.51505497c.7328954 0 1.330124-.5947709 1.330124-1.3291409v-5.6822741h-2.0728504c.1803975.4394423.2821476.920666.2821476 1.4240093z"/>
  </g>
</svg>
