<svg xmlns="http://www.w3.org/2000/svg" xmlns:xlink="http://www.w3.org/1999/xlink" zoomAndPan="magnify" viewBox="0 0 810 809.999993" preserveAspectRatio="xMidYMid meet" version="1.2"><defs><clipPath id="029584d680"><path d="M 145.015625 86 L 669.265625 86 L 669.265625 741.832031 L 145.015625 741.832031 Z M 145.015625 86 "/></clipPath></defs><g id="d304739a6a"><path style=" stroke:none;fill-rule:nonzero;fill:#f6f5f1;fill-opacity:1;" d="M 395.273438 0.289062 C 361.328125 1.433594 311.253906 12.738281 272.238281 28.597656 C 208.199219 54.628906 146.554688 104.246094 105.652344 162.675781 C 87.519531 188.582031 63.09375 229.140625 54.085938 248.292969 C 30.917969 297.574219 13.003906 367.75 6.15625 436.078125 C 0.015625 497.324219 16.710938 578.988281 47.179688 636.773438 C 84.082031 706.761719 115.972656 735.835938 186.523438 763.816406 C 233.523438 782.453125 317.394531 801.359375 373.832031 806.03125 C 402.40625 808.398438 409.375 808.398438 440.503906 806.023438 C 473.875 803.476562 500.722656 798.347656 535.246094 787.917969 C 601.378906 767.9375 643.316406 744.394531 688.386719 701.945312 C 716.144531 675.800781 743.855469 637.234375 763.132812 597.914062 C 777.675781 568.25 796.65625 512.546875 803.976562 478.035156 C 808.996094 454.378906 809.605469 446.878906 809.710938 407.132812 C 809.816406 368.265625 809.210938 359.765625 804.875 339.40625 C 794.382812 290.121094 775.511719 242.625 753.160156 209.242188 C 733.789062 180.308594 700.210938 136.640625 685.070312 120.683594 C 649.125 82.808594 586.128906 42.300781 539.449219 27.046875 C 514.050781 18.75 431.347656 1.910156 408.753906 0.4375 C 404.644531 0.167969 400.121094 0.125 395.273438 0.289062 Z M 395.273438 0.289062 "/><path style=" stroke:none;fill-rule:nonzero;fill:#5c4a51;fill-opacity:1;" d="M 377.546875 520.054688 C 378.050781 520.558594 378.605469 521.011719 379.199219 521.410156 C 379.796875 521.808594 380.425781 522.144531 381.089844 522.421875 C 381.75 522.695312 382.433594 522.902344 383.136719 523.042969 C 383.839844 523.183594 384.550781 523.253906 385.269531 523.253906 C 385.984375 523.253906 386.695312 523.183594 387.398438 523.042969 C 388.101562 522.902344 388.785156 522.695312 389.445312 522.421875 C 390.109375 522.144531 390.738281 521.808594 391.335938 521.410156 C 391.929688 521.011719 392.484375 520.558594 392.988281 520.054688 L 545.878906 367.167969 C 546.382812 366.660156 546.835938 366.109375 547.234375 365.511719 C 547.632812 364.914062 547.96875 364.285156 548.246094 363.625 C 548.519531 362.960938 548.726562 362.277344 548.867188 361.574219 C 549.007812 360.871094 549.074219 360.160156 549.074219 359.445312 C 549.074219 358.726562 549.007812 358.015625 548.867188 357.3125 C 548.726562 356.609375 548.519531 355.925781 548.246094 355.265625 C 547.96875 354.601562 547.632812 353.972656 547.234375 353.375 C 546.835938 352.78125 546.382812 352.230469 545.878906 351.722656 L 513.117188 318.960938 C 512.609375 318.453125 512.058594 318 511.460938 317.601562 C 510.863281 317.203125 510.234375 316.867188 509.574219 316.59375 C 508.910156 316.320312 508.226562 316.109375 507.523438 315.972656 C 506.820312 315.832031 506.109375 315.761719 505.394531 315.761719 C 504.675781 315.761719 503.964844 315.832031 503.261719 315.972656 C 502.558594 316.109375 501.875 316.320312 501.214844 316.59375 C 500.550781 316.867188 499.921875 317.203125 499.328125 317.601562 C 498.730469 318 498.179688 318.453125 497.671875 318.960938 L 385.269531 431.363281 L 349.308594 395.402344 C 348.800781 394.898438 348.25 394.445312 347.652344 394.046875 C 347.058594 393.648438 346.425781 393.3125 345.765625 393.035156 C 345.101562 392.761719 344.417969 392.554688 343.714844 392.414062 C 343.011719 392.273438 342.304688 392.207031 341.585938 392.203125 C 340.867188 392.207031 340.160156 392.273438 339.457031 392.414062 C 338.75 392.554688 338.070312 392.761719 337.40625 393.035156 C 336.742188 393.3125 336.113281 393.648438 335.519531 394.046875 C 334.921875 394.445312 334.371094 394.898438 333.863281 395.402344 L 301.101562 428.164062 C 300.59375 428.671875 300.140625 429.222656 299.742188 429.820312 C 299.34375 430.417969 299.007812 431.046875 298.734375 431.707031 C 298.460938 432.371094 298.253906 433.054688 298.113281 433.757812 C 297.972656 434.460938 297.902344 435.171875 297.902344 435.886719 C 297.902344 436.605469 297.972656 437.316406 298.113281 438.019531 C 298.253906 438.722656 298.460938 439.402344 298.734375 440.066406 C 299.007812 440.730469 299.34375 441.359375 299.742188 441.953125 C 300.140625 442.550781 300.59375 443.101562 301.101562 443.609375 Z M 341.585938 418.570312 L 377.546875 454.53125 C 378.050781 455.039062 378.605469 455.488281 379.199219 455.886719 C 379.796875 456.285156 380.425781 456.625 381.089844 456.898438 C 381.75 457.171875 382.433594 457.378906 383.136719 457.519531 C 383.839844 457.660156 384.550781 457.730469 385.269531 457.730469 C 385.984375 457.730469 386.695312 457.660156 387.398438 457.519531 C 388.101562 457.378906 388.785156 457.171875 389.445312 456.898438 C 390.109375 456.625 390.738281 456.285156 391.335938 455.886719 C 391.929688 455.488281 392.484375 455.039062 392.988281 454.53125 L 505.394531 342.125 L 522.710938 359.445312 L 385.269531 496.886719 L 324.269531 435.886719 Z M 341.585938 418.570312 "/><g clip-rule="nonzero" clip-path="url(#029584d680)"><path style=" stroke:none;fill-rule:nonzero;fill:#5c4a51;fill-opacity:1;" d="M 273.71875 660.578125 C 338.058594 726.316406 402.09375 740.832031 404.789062 741.417969 C 406.335938 741.753906 407.882812 741.753906 409.429688 741.417969 C 412.125 740.832031 476.160156 726.316406 540.5 660.578125 C 578.019531 622.246094 607.875 574.304688 629.246094 518.09375 C 655.757812 448.34375 669.203125 365.574219 669.203125 272.078125 C 669.199219 271.199219 669.097656 270.332031 668.886719 269.476562 C 668.675781 268.621094 668.367188 267.804688 667.960938 267.023438 C 667.550781 266.242188 667.054688 265.519531 666.472656 264.859375 C 665.890625 264.199219 665.238281 263.617188 664.515625 263.117188 L 413.34375 88.386719 C 412.429688 87.75 411.441406 87.265625 410.375 86.933594 C 409.3125 86.597656 408.222656 86.433594 407.109375 86.433594 C 405.996094 86.433594 404.90625 86.597656 403.839844 86.933594 C 402.777344 87.265625 401.789062 87.75 400.875 88.386719 L 149.703125 263.117188 C 148.976562 263.617188 148.324219 264.199219 147.742188 264.859375 C 147.160156 265.519531 146.667969 266.242188 146.257812 267.023438 C 145.851562 267.804688 145.542969 268.621094 145.332031 269.476562 C 145.121094 270.332031 145.015625 271.199219 145.015625 272.078125 C 145.015625 365.574219 158.460938 448.34375 184.976562 518.089844 C 206.34375 574.304688 236.203125 622.242188 273.71875 660.578125 Z M 407.109375 110.652344 L 647.34375 277.773438 C 646.8125 365.820312 633.992188 443.691406 609.207031 509.324219 C 589.078125 562.632812 561.046875 608.03125 525.898438 644.261719 C 472.671875 699.117188 418.738281 716.269531 407.09375 719.476562 C 395.472656 716.316406 342.449219 699.570312 289.328125 645.296875 C 253.925781 609.121094 225.6875 563.714844 205.390625 510.328125 C 180.355469 444.480469 167.402344 366.269531 166.875 277.773438 Z M 407.109375 110.652344 "/></g><path style=" stroke:none;fill-rule:nonzero;fill:#5c4a51;fill-opacity:1;" d="M 307.929688 617.347656 C 345.941406 658.027344 383.921875 676.398438 403.175781 683.726562 C 404.433594 684.207031 405.734375 684.445312 407.082031 684.441406 C 408.425781 684.4375 409.726562 684.195312 410.984375 683.710938 C 429.242188 676.679688 465.28125 659.359375 501.476562 622.378906 C 533.703125 589.457031 559.519531 547.832031 578.203125 498.679688 C 599.636719 442.304688 611.730469 375.671875 614.144531 300.648438 C 614.175781 299.738281 614.089844 298.835938 613.894531 297.949219 C 613.699219 297.058594 613.398438 296.207031 612.988281 295.394531 C 612.582031 294.582031 612.078125 293.828125 611.480469 293.140625 C 610.886719 292.453125 610.214844 291.851562 609.464844 291.328125 L 413.34375 154.902344 C 412.429688 154.265625 411.441406 153.78125 410.375 153.445312 C 409.3125 153.113281 408.222656 152.945312 407.109375 152.945312 C 405.996094 152.945312 404.90625 153.113281 403.839844 153.445312 C 402.777344 153.78125 401.789062 154.265625 400.875 154.902344 L 204.75 291.335938 C 204.003906 291.855469 203.332031 292.457031 202.734375 293.144531 C 202.140625 293.832031 201.636719 294.585938 201.226562 295.398438 C 200.820312 296.210938 200.519531 297.0625 200.320312 297.953125 C 200.125 298.839844 200.042969 299.742188 200.074219 300.652344 C 202.417969 373.464844 213.882812 438.414062 234.148438 493.691406 C 252.042969 542.5 276.867188 584.105469 307.929688 617.347656 Z M 407.109375 177.167969 L 592.105469 305.863281 C 589.339844 376.046875 577.800781 438.273438 557.789062 490.925781 C 540.179688 537.246094 515.980469 576.332031 485.867188 607.101562 C 455.003906 638.636719 424.550781 654.523438 407.039062 661.769531 C 388.628906 654.21875 356.449219 637.285156 323.890625 602.4375 C 294.832031 571.339844 271.539062 532.222656 254.65625 486.171875 C 235.738281 434.570312 224.796875 373.9375 222.113281 305.863281 Z M 407.109375 177.167969 "/></g></svg>
