<svg xmlns="http://www.w3.org/2000/svg" version="1.2" viewBox="0 0 810 810"><defs><clipPath id="a"><path d="M70 179h656v569H70Zm0 0"/></clipPath><clipPath id="b"><path d="M732.137 190.559 631.363 788.883 36 688.609 136.77 90.29Zm0 0"/></clipPath><clipPath id="c"><path d="M732.137 190.559 631.363 788.883 36 688.609 136.77 90.29Zm0 0"/></clipPath></defs><path d="M395.273.29c-33.945 1.144-84.02 12.448-123.035 28.308-64.039 26.03-125.683 75.648-166.586 134.078-18.132 25.906-42.558 66.465-51.566 85.617-23.168 49.281-41.082 119.457-47.93 187.785-6.14 61.246 10.555 142.91 41.024 200.695 36.902 69.989 68.793 99.063 139.343 127.043 47 18.637 130.872 37.543 187.309 42.215 28.574 2.367 35.543 2.367 66.672-.008 33.371-2.546 60.219-7.675 94.742-18.105 66.133-19.98 108.07-43.523 153.14-85.973 27.759-26.144 55.47-64.71 74.747-104.03 14.543-29.665 33.523-85.368 40.844-119.88 5.02-23.656 5.628-31.156 5.734-70.902.105-38.867-.5-47.367-4.836-67.727-10.492-49.285-29.363-96.781-51.715-130.164-19.37-28.933-52.95-72.601-68.09-88.558C649.125 82.809 586.13 42.3 539.45 27.047 514.05 18.75 431.347 1.91 408.753.437c-4.11-.269-8.633-.312-13.48-.148Zm0 0" style="stroke:none;fill-rule:nonzero;fill:#f6f5f1;fill-opacity:1"/><g clip-path="url(#a)"><g clip-path="url(#b)"><g clip-path="url(#c)"><path d="m238.754 718.273 48.129-34.265-.024-.035a9.902 9.902 0 0 0 3.993-6.211l19.414-100.04c0-.015 0-.015.004-.03a292.05 292.05 0 0 0 19.214-12.59l63.84-45.438 70.793 221.348c.309.984.79 1.933 1.422 2.804 3.219 4.45 9.445 5.454 13.899 2.22l62.511-45.263a9.97 9.97 0 0 0 4.68-7.668l3.46-43.472 36.02-25.637c7.563-5.379 12.25-13.367 13.688-21.887 1.433-8.52-.379-17.601-5.762-25.164-5.383-7.562-13.367-12.25-21.89-13.687-5.047-.848-10.247-.41-15.262 1.078l2.484-31.149 36.024-25.652c7.562-5.379 12.25-13.367 13.683-21.887 1.43-8.492-.383-17.558-5.765-25.12l-.536-.731c-5.37-7.164-13.109-11.594-21.347-12.985-5.047-.847-10.254-.398-15.266 1.094l4.29-53.738c.01-.168-.071-.32-.055-.5l66.214-47.125c25.79-18.356 47.024-36.227 62.465-58.566 15.66-22.657 25.012-49.368 26.602-84.895.219-4.738-2.922-8.855-7.313-10.066-34.004-10.078-62.242-9.98-88.73-2.614-26.168 7.274-50.008 21.48-75.781 39.825l-65.606 46.695c-.61-.3-1.148-.711-1.82-.887l-52.168-13.547c3.05-4.234 5.168-9.023 6.02-14.07 1.433-8.52-.364-17.598-5.762-25.164l-.043-.008c-5.383-7.559-13.356-12.246-21.86-13.68-8.238-1.386-17.004.266-24.425 5.274l-.739.488-36.023 25.637-30.242-7.856c3.046-4.234 5.168-9.023 6.015-14.07 1.438-8.52-.375-17.601-5.758-25.164-5.382-7.559-13.37-12.25-21.89-13.684-8.52-1.433-17.598.364-25.164 5.762l-36.02 25.637-42.207-10.973a9.968 9.968 0 0 0-8.777 1.91l-63.27 44.235c-4.5 3.152-5.61 9.36-2.457 13.86a9.874 9.874 0 0 0 2.184 2.26l187.074 140.22-64.184 45.683c-7.37 5.246-14.128 10.656-20.59 16.192L129.63 451.18a9.839 9.839 0 0 0-7.176 1.738l-.023-.035-48.133 34.27c-4.488 3.195-5.54 9.429-2.34 13.906a9.925 9.925 0 0 0 5.387 3.808l95.922 36.7c-4.211 13.593-6.774 28.44-7.516 44.91-.219 4.738 2.918 8.855 7.309 10.066 16.457 4.879 31.87 7.262 46.609 7.578l3.352 105.43a9.9 9.9 0 0 0 1.832 6.336c3.191 4.539 9.425 5.586 13.902 2.386ZM555.03 587.746l3.532-2.473c3.07-2.187 6.78-2.918 10.285-2.328a13.797 13.797 0 0 1 8.953 5.567c2.183 3.07 2.914 6.797 2.328 10.285-.59 3.488-2.496 6.754-5.57 8.953l-22.391 15.934 2.691-33.633Zm9.297-116.457 3.485-2.48c3.07-2.188 6.796-2.918 10.312-2.325 3.34.563 6.465 2.309 8.633 5.118l.34.437c2.168 3.066 2.902 6.793 2.312 10.297-.59 3.488-2.496 6.754-5.57 8.953l-22.39 15.934 2.628-33Zm-19.531-6.207-4.938 61.86-.004.015-4.355 54.586v.012l-4.938 61.843-.003.016-3.47 43.543-48.21 34.926-68.543-214.313 138.937-98.882ZM399.46 231.273a13.859 13.859 0 0 1 9.832-2.007c3.504.59 6.785 2.5 8.957 5.566 2.184 3.07 2.914 6.797 2.328 10.285-.59 3.504-2.496 6.754-5.57 8.953l-3.492 2.524-13.485-3.504-21.379-5.559ZM285.949 202.23c3.07-2.183 6.781-2.917 10.281-2.328 3.489.59 6.754 2.496 8.954 5.57 2.187 3.071 2.918 6.794 2.328 10.282-.586 3.488-2.492 6.754-5.567 8.953l-3.539 2.52-17.754-4.61-17.097-4.433ZM146.773 255.22l48.79-34.11 42.28 10.985h.016L260 237.84l90.922 23.617 2.254.578 114.258 29.684-139.493 99.293Zm-45.789 237.449 29.793-21.207 77.27 11.047c-6.95 7.558-13.367 15.39-18.715 23.926a147.755 147.755 0 0 0-8.977 16.605Zm85.2 86.84c2.14-24.66 9.015-44.918 20.02-62.48 12.292-19.618 29.952-36.2 52.1-51.962l307.114-218.574c24.191-17.219 46.25-30.449 69.531-36.922 20.965-5.824 43.469-6.308 70.297.516-2.324 27.586-10.152 48.691-22.523 66.59-13.743 19.879-33.48 36.383-57.66 53.59l-307.13 218.586c-22.128 15.75-43.593 27.003-66.16 32.207-20.199 4.644-41.59 4.504-65.59-1.551Zm53.332 23.758c5.648-.637 11.234-1.528 16.73-2.801 10.766-2.477 21.188-6.352 31.5-11.028L272.11 670.04l-29.796 21.207Zm0 0" style="stroke:none;fill-rule:nonzero;fill:#5c4a51;fill-opacity:1"/></g></g></g></svg>
