<svg xmlns="http://www.w3.org/2000/svg" xmlns:xlink="http://www.w3.org/1999/xlink" zoomAndPan="magnify" viewBox="0 0 810 809.999993" preserveAspectRatio="xMidYMid meet" version="1.2"><defs><clipPath id="88f7529cca"><path d="M 235.078125 380.269531 L 575 380.269531 L 575 658.855469 L 235.078125 658.855469 Z M 235.078125 380.269531 "/></clipPath><clipPath id="aac85956ca"><path d="M 49.679688 309.433594 L 316.40625 309.433594 L 316.40625 658.855469 L 49.679688 658.855469 Z M 49.679688 309.433594 "/></clipPath><clipPath id="f85e48baff"><path d="M 527 149.835938 L 719 149.835938 L 719 399 L 527 399 Z M 527 149.835938 "/></clipPath></defs><g id="7697c52045"><path style=" stroke:none;fill-rule:nonzero;fill:#f6f5f1;fill-opacity:1;" d="M 395.273438 0.289062 C 361.328125 1.433594 311.253906 12.738281 272.238281 28.597656 C 208.199219 54.628906 146.554688 104.246094 105.652344 162.675781 C 87.519531 188.582031 63.09375 229.140625 54.085938 248.292969 C 30.917969 297.574219 13.003906 367.75 6.15625 436.078125 C 0.015625 497.324219 16.710938 578.988281 47.179688 636.773438 C 84.082031 706.761719 115.972656 735.835938 186.523438 763.816406 C 233.523438 782.453125 317.394531 801.359375 373.832031 806.03125 C 402.40625 808.398438 409.375 808.398438 440.503906 806.023438 C 473.875 803.476562 500.722656 798.347656 535.246094 787.917969 C 601.378906 767.9375 643.316406 744.394531 688.386719 701.945312 C 716.144531 675.800781 743.855469 637.234375 763.132812 597.914062 C 777.675781 568.25 796.65625 512.546875 803.976562 478.035156 C 808.996094 454.378906 809.605469 446.878906 809.710938 407.132812 C 809.816406 368.265625 809.210938 359.765625 804.875 339.40625 C 794.382812 290.121094 775.511719 242.625 753.160156 209.242188 C 733.789062 180.308594 700.210938 136.640625 685.070312 120.683594 C 649.125 82.808594 586.128906 42.300781 539.449219 27.046875 C 514.050781 18.75 431.347656 1.910156 408.753906 0.4375 C 404.644531 0.167969 400.121094 0.125 395.273438 0.289062 Z M 395.273438 0.289062 "/><path style=" stroke:none;fill-rule:nonzero;fill:#f6f5f1;fill-opacity:1;" d="M 623.050781 206.226562 C 644.929688 206.226562 662.667969 223.964844 662.667969 245.84375 C 662.667969 267.722656 644.929688 285.464844 623.050781 285.464844 C 601.171875 285.464844 583.429688 267.722656 583.429688 245.84375 C 583.429688 223.964844 601.171875 206.226562 623.050781 206.226562 "/><path style=" stroke:none;fill-rule:nonzero;fill:#f6f5f1;fill-opacity:1;" d="M 182.941406 386.421875 C 214.347656 386.421875 239.800781 411.882812 239.800781 443.285156 C 239.800781 474.6875 214.347656 500.144531 182.941406 500.144531 C 151.539062 500.144531 126.082031 474.6875 126.082031 443.285156 C 126.082031 411.882812 151.539062 386.421875 182.941406 386.421875 "/><path style=" stroke:none;fill-rule:nonzero;fill:#ffffff;fill-opacity:1;" d="M 662.667969 245.84375 C 662.667969 223.964844 644.929688 206.226562 623.050781 206.226562 C 601.171875 206.226562 583.429688 223.964844 583.429688 245.84375 C 583.429688 267.722656 601.171875 285.464844 623.050781 285.464844 C 644.929688 285.464844 662.667969 267.722656 662.667969 245.84375 Z M 623.050781 159.019531 C 670.796875 159.019531 709.5 197.722656 709.5 245.46875 C 709.5 319.980469 623.050781 389.652344 623.050781 389.652344 C 623.050781 389.652344 536.597656 319.980469 536.597656 245.46875 C 536.597656 197.722656 575.300781 159.019531 623.050781 159.019531 "/><path style=" stroke:none;fill-rule:nonzero;fill:#ffffff;fill-opacity:1;" d="M 239.800781 443.285156 C 239.800781 411.882812 214.347656 386.421875 182.941406 386.421875 C 151.539062 386.421875 126.082031 411.882812 126.082031 443.285156 C 126.082031 474.6875 151.539062 500.144531 182.941406 500.144531 C 214.347656 500.144531 239.800781 474.6875 239.800781 443.285156 Z M 307.023438 442.742188 C 307.023438 549.6875 182.941406 649.675781 182.941406 649.675781 C 182.941406 649.675781 58.859375 549.6875 58.859375 442.742188 C 58.859375 374.214844 114.414062 318.660156 182.941406 318.660156 C 251.46875 318.660156 307.023438 374.214844 307.023438 442.742188 "/><g clip-rule="nonzero" clip-path="url(#88f7529cca)"><path style=" stroke:none;fill-rule:nonzero;fill:#5c4a51;fill-opacity:1;" d="M 458.230469 398.828125 L 444.238281 398.828125 C 439.167969 398.828125 435.058594 394.71875 435.058594 389.648438 C 435.058594 384.578125 439.167969 380.464844 444.238281 380.464844 L 458.230469 380.464844 C 463.304688 380.464844 467.414062 384.578125 467.414062 389.648438 C 467.414062 394.71875 463.304688 398.828125 458.230469 398.828125 Z M 509.390625 398.828125 L 495.398438 398.828125 C 490.324219 398.828125 486.214844 394.71875 486.214844 389.648438 C 486.214844 384.578125 490.324219 380.464844 495.398438 380.464844 L 509.390625 380.464844 C 514.460938 380.464844 518.574219 384.578125 518.574219 389.648438 C 518.574219 394.71875 514.460938 398.828125 509.390625 398.828125 Z M 560.550781 398.828125 L 546.558594 398.828125 C 541.484375 398.828125 537.375 394.71875 537.375 389.648438 C 537.375 384.578125 541.484375 380.464844 546.558594 380.464844 L 560.550781 380.464844 C 565.621094 380.464844 569.734375 384.578125 569.734375 389.648438 C 569.734375 394.71875 565.621094 398.828125 560.550781 398.828125 Z M 393.972656 404.863281 C 390.511719 404.863281 387.199219 402.894531 385.640625 399.550781 C 383.503906 394.949219 385.5 389.492188 390.097656 387.351562 C 394.921875 385.109375 400.003906 383.382812 405.199219 382.230469 C 410.152344 381.132812 415.054688 384.253906 416.152344 389.203125 C 417.253906 394.15625 414.132812 399.058594 409.183594 400.160156 C 405.28125 401.023438 401.464844 402.316406 397.839844 404.003906 C 396.585938 404.585938 395.269531 404.863281 393.972656 404.863281 Z M 360.25 441.582031 C 359.207031 441.582031 358.144531 441.402344 357.105469 441.023438 C 352.34375 439.285156 349.890625 434.015625 351.625 429.25 C 353.445312 424.257812 355.8125 419.445312 358.671875 414.945312 C 361.386719 410.664062 367.0625 409.398438 371.34375 412.113281 C 375.625 414.832031 376.894531 420.507812 374.175781 424.789062 C 372.027344 428.171875 370.246094 431.789062 368.878906 435.539062 C 367.519531 439.265625 364 441.582031 360.25 441.582031 Z M 362.449219 491.375 C 358.996094 491.375 355.691406 489.417969 354.128906 486.085938 C 351.871094 481.265625 350.132812 476.1875 348.964844 471 C 347.851562 466.050781 350.960938 461.136719 355.910156 460.023438 C 360.855469 458.910156 365.769531 462.019531 366.882812 466.96875 C 367.761719 470.863281 369.0625 474.675781 370.757812 478.296875 C 372.910156 482.890625 370.929688 488.355469 366.339844 490.507812 C 365.078125 491.097656 363.753906 491.375 362.449219 491.375 Z M 399.25 524.996094 C 398.214844 524.996094 397.164062 524.820312 396.128906 524.445312 C 391.132812 522.640625 386.3125 520.28125 381.808594 517.4375 C 377.519531 514.734375 376.234375 509.0625 378.941406 504.773438 C 381.648438 500.484375 387.320312 499.203125 391.609375 501.910156 C 394.996094 504.046875 398.617188 505.816406 402.371094 507.175781 C 407.140625 508.898438 409.609375 514.160156 407.886719 518.929688 C 406.535156 522.667969 403.007812 524.996094 399.25 524.996094 Z M 449.964844 528.84375 L 435.972656 528.84375 C 430.902344 528.84375 426.789062 524.734375 426.789062 519.660156 C 426.789062 514.589844 430.902344 510.480469 435.972656 510.480469 L 449.964844 510.480469 C 455.035156 510.480469 459.144531 514.589844 459.144531 519.660156 C 459.144531 524.734375 455.035156 528.84375 449.964844 528.84375 Z M 501.121094 528.84375 C 501.113281 528.84375 501.101562 528.84375 501.085938 528.84375 L 487.128906 528.84375 C 482.0625 528.84375 477.949219 524.734375 477.949219 519.660156 C 477.949219 514.589844 482.0625 510.480469 487.128906 510.480469 L 501.15625 510.480469 C 506.230469 510.5 510.324219 514.625 510.304688 519.699219 C 510.285156 524.757812 506.175781 528.84375 501.121094 528.84375 Z M 547.046875 548.183594 C 544.675781 548.183594 542.304688 547.273438 540.507812 545.453125 C 537.691406 542.597656 534.566406 540.046875 531.21875 537.863281 C 526.96875 535.09375 525.769531 529.40625 528.542969 525.15625 C 531.308594 520.910156 536.996094 519.707031 541.25 522.476562 C 545.695312 525.378906 549.847656 528.765625 553.578125 532.550781 C 557.140625 536.160156 557.101562 541.972656 553.496094 545.535156 C 551.707031 547.304688 549.378906 548.183594 547.046875 548.183594 Z M 565.785156 594.355469 C 565.761719 594.355469 565.738281 594.355469 565.71875 594.355469 C 560.644531 594.316406 556.566406 590.175781 556.605469 585.105469 L 556.605469 584.691406 C 556.605469 580.789062 556.207031 576.917969 555.421875 573.164062 C 554.378906 568.199219 557.5625 563.335938 562.527344 562.292969 C 567.488281 561.257812 572.355469 564.4375 573.394531 569.398438 C 574.441406 574.390625 574.96875 579.527344 574.96875 584.667969 C 574.96875 584.84375 574.96875 585.042969 574.964844 585.242188 C 574.929688 590.289062 570.824219 594.355469 565.785156 594.355469 Z M 546.328125 640.230469 C 543.953125 640.230469 541.578125 639.3125 539.78125 637.484375 C 536.222656 633.863281 536.277344 628.050781 539.898438 624.496094 C 542.757812 621.691406 545.316406 618.566406 547.511719 615.222656 C 550.292969 610.980469 555.980469 609.796875 560.226562 612.578125 C 564.464844 615.359375 565.648438 621.050781 562.867188 625.292969 C 559.960938 629.730469 556.558594 633.871094 552.765625 637.597656 C 550.976562 639.355469 548.652344 640.230469 546.328125 640.230469 Z M 258.308594 658.855469 L 244.316406 658.855469 C 239.242188 658.855469 235.132812 654.746094 235.132812 649.675781 C 235.132812 644.605469 239.242188 640.492188 244.316406 640.492188 L 258.308594 640.492188 C 263.378906 640.492188 267.488281 644.605469 267.488281 649.675781 C 267.488281 654.746094 263.378906 658.855469 258.308594 658.855469 Z M 309.464844 658.855469 L 295.472656 658.855469 C 290.402344 658.855469 286.292969 654.746094 286.292969 649.675781 C 286.292969 644.605469 290.402344 640.492188 295.472656 640.492188 L 309.464844 640.492188 C 314.539062 640.492188 318.648438 644.605469 318.648438 649.675781 C 318.648438 654.746094 314.539062 658.855469 309.464844 658.855469 Z M 360.625 658.855469 L 346.632812 658.855469 C 341.5625 658.855469 337.449219 654.746094 337.449219 649.675781 C 337.449219 644.605469 341.5625 640.492188 346.632812 640.492188 L 360.625 640.492188 C 365.695312 640.492188 369.808594 644.605469 369.808594 649.675781 C 369.808594 654.746094 365.695312 658.855469 360.625 658.855469 Z M 411.785156 658.855469 L 397.792969 658.855469 C 392.722656 658.855469 388.609375 654.746094 388.609375 649.675781 C 388.609375 644.605469 392.722656 640.492188 397.792969 640.492188 L 411.785156 640.492188 C 416.855469 640.492188 420.96875 644.605469 420.96875 649.675781 C 420.96875 654.746094 416.855469 658.855469 411.785156 658.855469 Z M 462.945312 658.855469 L 448.953125 658.855469 C 443.878906 658.855469 439.769531 654.746094 439.769531 649.675781 C 439.769531 644.605469 443.878906 640.492188 448.953125 640.492188 L 462.945312 640.492188 C 468.015625 640.492188 472.125 644.605469 472.125 649.675781 C 472.125 654.746094 468.015625 658.855469 462.945312 658.855469 Z M 500.78125 658.855469 L 500.109375 658.855469 C 495.039062 658.855469 490.929688 654.746094 490.929688 649.675781 C 490.929688 644.605469 495.039062 640.492188 500.109375 640.492188 L 500.78125 640.492188 C 504.613281 640.492188 508.4375 640.101562 512.148438 639.335938 C 517.113281 638.308594 521.96875 641.507812 522.996094 646.46875 C 524.023438 651.433594 520.832031 656.292969 515.867188 657.320312 C 510.933594 658.339844 505.855469 658.855469 500.78125 658.855469 "/></g><g clip-rule="nonzero" clip-path="url(#aac85956ca)"><path style=" stroke:none;fill-rule:nonzero;fill:#5c4a51;fill-opacity:1;" d="M 182.941406 327.84375 C 119.585938 327.84375 68.042969 379.386719 68.042969 442.742188 C 68.042969 495.195312 100.546875 546.476562 127.8125 580.253906 C 150.097656 607.867188 172.648438 628.636719 182.941406 637.628906 C 193.230469 628.636719 215.78125 607.871094 238.070312 580.253906 C 265.335938 546.476562 297.839844 495.195312 297.839844 442.742188 C 297.839844 379.386719 246.296875 327.84375 182.941406 327.84375 Z M 182.941406 658.855469 C 180.902344 658.855469 178.859375 658.179688 177.179688 656.824219 C 175.882812 655.777344 145.035156 630.765625 113.761719 592.089844 C 95.296875 569.25 80.558594 546.394531 69.960938 524.144531 C 56.503906 495.902344 49.679688 468.515625 49.679688 442.742188 C 49.679688 407.148438 63.542969 373.683594 88.710938 348.511719 C 113.878906 323.34375 147.347656 309.480469 182.941406 309.480469 C 218.539062 309.480469 252 323.34375 277.171875 348.511719 C 302.34375 373.683594 316.203125 407.148438 316.203125 442.742188 C 316.203125 468.515625 309.378906 495.902344 295.921875 524.144531 C 285.320312 546.394531 270.585938 569.25 252.121094 592.089844 C 220.84375 630.765625 190 655.777344 188.703125 656.824219 C 187.019531 658.179688 184.980469 658.855469 182.941406 658.855469 "/></g><path style=" stroke:none;fill-rule:nonzero;fill:#5c4a51;fill-opacity:1;" d="M 182.941406 395.605469 C 156.652344 395.605469 135.261719 416.992188 135.261719 443.285156 C 135.261719 469.574219 156.652344 490.960938 182.941406 490.960938 C 209.230469 490.960938 230.621094 469.574219 230.621094 443.285156 C 230.621094 416.992188 209.230469 395.605469 182.941406 395.605469 Z M 182.941406 509.328125 C 146.523438 509.328125 116.898438 479.699219 116.898438 443.285156 C 116.898438 406.867188 146.523438 377.238281 182.941406 377.238281 C 219.355469 377.238281 248.984375 406.867188 248.984375 443.285156 C 248.984375 479.699219 219.355469 509.328125 182.941406 509.328125 "/><g clip-rule="nonzero" clip-path="url(#f85e48baff)"><path style=" stroke:none;fill-rule:nonzero;fill:#5c4a51;fill-opacity:1;" d="M 623.050781 168.199219 C 580.445312 168.199219 545.777344 202.863281 545.777344 245.46875 C 545.777344 303.921875 604.230469 360.757812 623.050781 377.539062 C 630.773438 370.664062 645.148438 357.066406 659.367188 339.445312 C 678.042969 316.277344 700.320312 281.171875 700.320312 245.46875 C 700.320312 202.863281 665.65625 168.199219 623.050781 168.199219 Z M 623.050781 398.828125 C 621.007812 398.828125 618.972656 398.152344 617.289062 396.800781 C 616.375 396.0625 594.660156 378.453125 572.683594 351.273438 C 559.683594 335.195312 549.300781 319.082031 541.816406 303.382812 C 532.257812 283.328125 527.414062 263.84375 527.414062 245.46875 C 527.414062 219.921875 537.363281 195.910156 555.425781 177.84375 C 573.488281 159.78125 597.507812 149.835938 623.050781 149.835938 C 648.597656 149.835938 672.609375 159.78125 690.671875 177.84375 C 708.734375 195.910156 718.683594 219.921875 718.683594 245.46875 C 718.683594 263.84375 713.839844 283.328125 704.285156 303.382812 C 696.804688 319.082031 686.417969 335.195312 673.414062 351.273438 C 651.4375 378.453125 629.722656 396.0625 628.808594 396.800781 C 627.132812 398.152344 625.089844 398.828125 623.050781 398.828125 "/></g><path style=" stroke:none;fill-rule:nonzero;fill:#5c4a51;fill-opacity:1;" d="M 623.050781 215.410156 C 606.269531 215.410156 592.613281 229.0625 592.613281 245.847656 C 592.613281 262.628906 606.269531 276.28125 623.050781 276.28125 C 639.832031 276.28125 653.484375 262.628906 653.484375 245.847656 C 653.484375 229.0625 639.832031 215.410156 623.050781 215.410156 Z M 623.050781 294.644531 C 596.140625 294.644531 574.25 272.753906 574.25 245.847656 C 574.25 218.9375 596.140625 197.046875 623.050781 197.046875 C 649.960938 197.046875 671.847656 218.9375 671.847656 245.847656 C 671.847656 272.753906 649.960938 294.644531 623.050781 294.644531 "/></g></svg>
