<svg xmlns="http://www.w3.org/2000/svg" viewBox="0 0 25 26">
  <g fill-rule="evenodd">
    <path d="M10.2829438 15.655102c1.8392856-.9537501 3.6625208-1.8987226 5.5025588-2.8529743-1.8455554-.9630293-3.6682889-1.9135191-5.5025588-2.87078029V15.655102z"/>
    <path d="M12.5164695.711345C5.74717608.711345.259163 6.19910729.259163 12.9686515c0 6.7695443 5.48801308 12.2573066 12.2573065 12.2573066 6.7692935 0 12.2573066-5.4877623 12.2573066-12.2573066 0-6.76954421-5.4880131-12.2573065-12.2573066-12.2573065zm8.3515206 16.3486764c-.2121674.9203951-.9650356 1.5992806-1.8711359 1.7003486-2.1460004.2400049-4.3178321.2412589-6.4808862.2400049-2.1630541.001254-4.33538741 0-6.48188944-.2400049-.90610023-.101068-1.65846687-.7799535-1.87013269-1.7003486-.30169902-1.3111243-.30169902-2.7418749-.30169902-4.0913699 0-1.3494949.00351105-2.78074706.30521007-4.09136975.21166581-.92039519.96403246-1.59953148 1.87013268-1.70085019 2.14650203-.23975417 4.3188353-.24100812 6.4818894-.23975417 2.1625525-.00125395 4.3348858 0 6.4806355.23975417.9066018.10131871 1.65947.78020421 1.8711358 1.70085019.301699 1.31087348.2991912 2.74187485.2991912 4.09136975 0 1.349495-.0007524 2.7804964-.3024514 4.0913699z"/>
  </g>
</svg>
